# Blender 5.0.1
# www.blender.org
mtllib windowwall_1-2.mtl
o 2nd_Floor_Center_Wall.004
v 0.488690 1.858932 0.416873
v -0.490550 1.858932 0.416873
v 0.600000 1.029466 0.416873
v 0.488690 1.858932 0.482781
v -0.600000 1.029466 0.416873
v 0.488690 0.108215 0.482781
v 0.600000 0.000003 -1.648340
v 0.600000 1.858936 -1.648340
v 0.000000 -0.000001 0.416873
v -0.600000 -0.000001 0.416873
v 0.600000 -0.000001 0.416873
v -0.600000 1.858932 0.416873
v -0.490550 1.858930 0.482781
v -0.488690 0.108219 0.482781
v -0.600000 0.000003 -1.648340
v -0.600000 1.858936 -1.648340
v 0.000000 0.108215 0.482781
v 0.600000 1.858932 0.416873
v 0.000000 1.858936 -1.648340
v 0.000000 0.000003 -1.648340
v 0.600000 1.858934 -0.582779
v 0.600000 0.000001 -0.582779
v -0.600000 1.858934 -0.582779
v -0.600000 0.000001 -0.582779
v 0.000000 1.858934 -0.582779
v 0.000000 0.000001 -0.582779
v 0.488692 1.029466 0.482781
v 0.600000 1.029470 -1.648340
v -0.488692 1.029466 0.482781
v -0.600000 1.029470 -1.648340
v 0.000000 1.029470 -1.648340
v -0.600000 1.029468 -0.582779
v 0.600000 1.029468 -0.582779
v 0.600000 1.029466 0.482781
v 0.600000 1.858932 0.482781
v 0.000000 -0.000001 0.482781
v 0.600000 -0.000001 0.482781
v -0.600000 1.029466 0.482781
v -0.600000 1.858932 0.482781
v -0.600000 -0.000001 0.482781
v -0.490550 1.858936 -1.648340
v -0.490550 1.858934 -0.582779
v -0.490550 1.029470 -1.648340
v 0.488690 0.108219 -1.648340
v 0.488690 1.858936 -1.648340
v 0.000000 0.108219 -1.648340
v -0.488690 0.108219 -1.648340
v 0.488690 1.858934 -0.582779
v 0.488690 1.029470 -1.648340
v 0.000000 0.231690 0.352758
v 0.000000 0.231690 0.416873
v 0.000000 1.858932 0.416873
v 0.488692 1.029466 0.416873
v -0.488692 1.029469 0.416873
v 0.488690 0.108215 0.416873
v -0.488690 0.108219 0.416873
v -0.600000 1.494199 0.416873
v 0.600000 1.494199 0.482781
v -0.600000 1.494199 0.482781
v -0.600000 1.494201 -0.582779
v 0.600000 1.494203 -1.648340
v -0.600000 1.494203 -1.648340
v 0.000000 1.494203 -1.648340
v 0.600000 1.494201 -0.582779
v 0.488691 1.494199 0.482781
v -0.489621 1.494199 0.482781
v -0.490550 1.494203 -1.648340
v 0.488690 1.494203 -1.648340
v -0.000211 1.573462 0.416873
v -0.489621 1.494199 0.416873
v 0.600000 1.494199 0.416873
v 0.488691 1.494199 0.416873
v 0.600000 1.261836 -1.648340
v -0.600000 1.261836 -1.648340
v 0.000000 1.261836 -1.648340
v 0.600000 1.261834 -0.582779
v -0.490550 1.261836 -1.648340
v 0.488690 1.261836 -1.648340
v 0.000090 1.029469 0.352758
v 0.600000 1.261832 0.416873
v -0.600000 1.261832 0.416873
v 0.600000 1.261832 0.482781
v -0.600000 1.261832 0.482781
v -0.600000 1.261834 -0.582779
v 0.488691 1.261832 0.482781
v -0.489157 1.261832 0.482781
v -0.489157 1.261832 0.416873
v 0.488691 1.261832 0.416873
v -0.330820 -0.000001 0.416873
v -0.332081 1.858936 -1.648340
v -0.332081 1.858934 -0.582779
v -0.332081 1.029470 -1.648340
v -0.330822 0.108219 -1.648340
v -0.330820 0.000001 -0.582779
v -0.330820 0.108217 0.482781
v -0.330820 -0.000001 0.482781
v -0.330820 0.000003 -1.648340
v -0.330820 1.029361 0.416873
v -0.306676 0.231692 0.416873
v -0.332081 1.858932 0.416873
v -0.226071 1.482390 0.416873
v -0.332081 1.494203 -1.648340
v -0.332081 1.261836 -1.648340
v -0.330820 1.261680 0.416873
v 0.330959 -0.000001 0.416873
v 0.330959 0.108219 -1.648340
v 0.330960 0.108215 0.482781
v 0.330959 -0.000001 0.482781
v 0.330960 1.858936 -1.648340
v 0.330960 1.858934 -0.582779
v 0.330960 1.029470 -1.648340
v 0.330959 0.000001 -0.582779
v 0.330959 0.000003 -1.648340
v 0.306814 0.231690 0.416873
v 0.306814 1.029577 0.416873
v 0.330960 1.858932 0.416873
v 0.225747 1.482584 0.416873
v 0.330960 1.494203 -1.648340
v 0.330960 1.261836 -1.648340
v 0.306814 1.257985 0.416873
v -0.330822 0.108217 0.416873
v 0.000000 0.108215 0.416873
v -0.245309 1.500047 0.416873
v -0.000223 1.598871 0.416873
v -0.306675 1.257704 0.416873
v -0.306675 1.029361 0.416873
v 0.330959 0.108215 0.416873
v 0.244955 1.500262 0.416873
v 0.330959 1.261984 0.416873
v 0.330959 1.029577 0.416873
v 0.000090 1.029469 0.385286
v 0.000000 0.231690 0.385286
v 0.000000 1.261832 0.385286
v -0.306675 1.029361 0.385286
v -0.000211 1.573462 0.385286
v -0.306675 1.257704 0.385286
v 0.306814 1.029577 0.385286
v 0.306814 1.257985 0.385286
v -0.306676 0.231692 0.385286
v -0.226071 1.482390 0.385286
v 0.306814 0.231690 0.385286
v 0.225747 1.482584 0.385286
v -0.306675 1.029361 0.352758
v -0.000211 1.573462 0.352758
v 0.000000 1.261832 0.352758
v -0.306675 1.257704 0.352758
v 0.306814 1.029577 0.352758
v 0.306814 1.257985 0.352758
v -0.306676 0.231692 0.352758
v -0.226071 1.482390 0.352758
v 0.306814 0.231690 0.352758
v 0.225747 1.482584 0.352758
vn -1.0000 -0.0000 -0.0000
vn 1.0000 -0.0000 -0.0000
vn -0.0000 -1.0000 -0.0000
vn -0.0000 1.0000 -0.0000
vn -0.0000 -0.0000 -1.0000
vn -0.0000 -0.0000 1.0000
vn 1.0000 0.0020 -0.0000
vn 1.0000 0.0010 -0.0000
vn -0.9850 -0.1723 -0.0000
vn -0.9406 -0.3395 -0.0000
vn -0.9733 -0.2294 -0.0000
vn 1.0000 0.0025 -0.0000
vn 1.0000 0.0023 -0.0000
vn 0.9852 -0.1714 -0.0000
vn 0.9736 -0.2281 -0.0000
vn -0.3731 -0.9278 -0.0000
vn -0.0005 1.0000 -0.0000
vn 0.0125 0.9999 -0.0000
vn 0.3740 -0.9274 -0.0000
vn 0.9413 -0.3377 -0.0000
vn -0.0135 0.9999 -0.0000
vn 0.0004 -1.0000 -0.0000
vt 0.227327 0.646697
vt 0.227327 0.741019
vt 0.192930 0.741019
vt 0.192930 0.646697
vt 0.158533 0.741019
vt 0.192930 0.747239
vt 0.158532 0.747239
vt 0.042296 0.747239
vt 0.072656 0.747239
vt 0.072656 0.753457
vt 0.042296 0.753457
vt 0.378283 0.552374
vt 0.368242 0.552374
vt 0.368242 0.546156
vt 0.378283 0.546156
vt 0.468112 0.781653
vt 0.468112 0.747239
vt 0.478323 0.747239
vt 0.478323 0.781653
vt 0.368242 0.646697
vt 0.368242 0.741020
vt 0.271155 0.741020
vt 0.271155 0.646697
vt 0.017615 0.646697
vt 0.114704 0.646697
vt 0.114704 0.741020
vt 0.017615 0.741020
vt 0.227327 0.747239
vt 0.392820 0.646697
vt 0.378283 0.646697
vt 0.392820 0.552374
vt 0.258161 0.803578
vt 0.268372 0.803578
vt 0.268372 0.825503
vt 0.258161 0.825503
vt 0.392820 0.781653
vt 0.392820 0.747239
vt 0.423283 0.747239
vt 0.423283 0.781653
vt 0.103004 0.747239
vt 0.127696 0.747239
vt 0.127696 0.753457
vt 0.103004 0.753457
vt 0.042296 0.847780
vt 0.072656 0.847780
vt 0.072656 0.948321
vt 0.042296 0.948321
vt 0.453643 0.747239
vt 0.423283 0.646697
vt 0.453643 0.646697
vt 0.227327 0.546156
vt 0.192930 0.546156
vt 0.378283 0.747239
vt 0.368242 0.747239
vt 0.368242 0.646697
vt 0.158533 0.546156
vt 0.158533 0.646697
vt 0.017615 0.546156
vt 0.114704 0.546156
vt 0.368242 0.546156
vt 0.271155 0.546156
vt 0.392935 0.912428
vt 0.392820 0.825503
vt 0.423283 0.825503
vt 0.423283 0.912428
vt 0.139796 0.934979
vt 0.139796 0.904632
vt 0.146015 0.904632
vt 0.146015 0.934980
vt 0.157477 0.859824
vt 0.157477 0.881738
vt 0.151258 0.881738
vt 0.151258 0.859824
vt 0.271155 0.747239
vt 0.478323 0.922639
vt 0.468112 0.912428
vt 0.468112 0.825503
vt 0.478323 0.825503
vt 0.114704 0.747239
vt 0.017615 0.747239
vt 0.268372 0.912428
vt 0.258161 0.922639
vt 0.282841 0.912428
vt 0.313202 0.912428
vt 0.313202 0.922639
vt 0.282841 0.922639
vt 0.368242 0.922639
vt 0.358031 0.912428
vt 0.358032 0.825503
vt 0.368242 0.825503
vt 0.358074 0.803578
vt 0.368242 0.803578
vt 0.343549 0.912428
vt 0.343549 0.922639
vt 0.378283 0.825503
vt 0.378453 0.912428
vt 0.127696 0.847780
vt 0.103004 0.847780
vt 0.368242 0.781653
vt 0.378283 0.781653
vt 0.478323 0.646697
vt 0.468112 0.646697
vt 0.468112 0.552374
vt 0.478323 0.552374
vt 0.127696 0.948321
vt 0.103004 0.948321
vt 0.453643 0.912428
vt 0.453643 0.825503
vt 0.392935 0.922639
vt 0.423283 0.922639
vt 0.453643 0.922639
vt 0.468112 0.546156
vt 0.478323 0.546156
vt 0.453643 0.781653
vt 0.157477 0.968620
vt 0.151258 0.968620
vt 0.139796 0.902758
vt 0.139796 0.977986
vt 0.136815 0.977986
vt 0.136815 0.902758
vt 0.127696 0.881219
vt 0.127696 0.859802
vt 0.130677 0.859802
vt 0.130677 0.881219
vt 0.243508 0.825513
vt 0.257991 0.825503
vt 0.257991 0.912428
vt 0.243509 0.912428
vt 0.243508 0.803593
vt 0.258034 0.803578
vt 0.157477 0.912345
vt 0.157477 0.825464
vt 0.163696 0.825464
vt 0.163696 0.912345
vt 0.157477 0.781636
vt 0.157477 0.747239
vt 0.163696 0.747239
vt 0.163696 0.781636
vt 0.139796 0.874271
vt 0.139796 0.859802
vt 0.146015 0.859802
vt 0.146015 0.874272
vt 0.423283 0.552374
vt 0.453643 0.552374
vt 0.136618 0.646697
vt 0.136618 0.741019
vt 0.157477 0.803550
vt 0.163696 0.803550
vt 0.243624 0.747239
vt 0.258161 0.747239
vt 0.258076 0.781653
vt 0.235664 0.781101
vt 0.182800 0.747239
vt 0.213161 0.747239
vt 0.213181 0.771777
vt 0.190690 0.781081
vt 0.453643 0.803578
vt 0.468112 0.803578
vt 0.378283 0.803578
vt 0.358202 0.747239
vt 0.358117 0.781653
vt 0.157477 0.803517
vt 0.157477 0.837912
vt 0.151258 0.837912
vt 0.151258 0.803517
vt 0.136618 0.546156
vt 0.249241 0.546156
vt 0.249241 0.646697
vt 0.392820 0.803578
vt 0.423283 0.803578
vt 0.268372 0.747239
vt 0.268372 0.781653
vt 0.258161 0.781653
vt 0.249241 0.741020
vt 0.249241 0.747239
vt 0.478323 0.803578
vt 0.136618 0.747239
vt 0.163526 0.912345
vt 0.163526 0.940478
vt 0.160546 0.940478
vt 0.160546 0.912345
vt 0.139796 0.881223
vt 0.136815 0.881223
vt 0.224609 0.953875
vt 0.224609 0.933148
vt 0.227590 0.933148
vt 0.227590 0.953875
vt 0.127696 0.902760
vt 0.130677 0.902760
vt 0.139796 0.949462
vt 0.146015 0.949462
vt 0.168331 0.781653
vt 0.182800 0.803564
vt 0.168331 0.803578
vt 0.168331 0.747239
vt 0.168331 0.825504
vt 0.182800 0.825493
vt 0.182801 0.912428
vt 0.168331 0.912428
vt 0.017615 0.753457
vt 0.017615 0.847780
vt 0.017615 0.948321
vt 0.213161 0.900778
vt 0.241294 0.900777
vt 0.213161 0.912428
vt 0.233899 0.782767
vt 0.213180 0.774174
vt 0.241293 0.803968
vt 0.241294 0.825513
vt 0.185016 0.900778
vt 0.192452 0.782749
vt 0.185015 0.803942
vt 0.185015 0.825493
vt 0.149248 0.803517
vt 0.149621 0.831662
vt 0.127696 0.831661
vt 0.127696 0.803524
vt 0.133746 0.859802
vt 0.133746 0.881219
vt 0.157477 0.940478
vt 0.230659 0.933148
vt 0.230659 0.953875
vt 0.149242 0.859795
vt 0.166765 0.775371
vt 0.166765 0.803517
vt 0.163696 0.803517
vt 0.163696 0.775371
vt 0.224609 0.912428
vt 0.227590 0.912428
vt 0.127696 0.978007
vt 0.130677 0.978007
vt 0.163526 0.968623
vt 0.160546 0.968623
vt 0.136815 0.859802
vt 0.747565 0.132854
vt 0.825462 0.132882
vt 0.825485 0.341276
vt 0.747565 0.341276
vt 0.663857 0.144494
vt 0.687623 0.201867
vt 0.606220 0.201852
vt 0.605178 0.123934
vt 0.663861 0.259238
vt 0.605178 0.279737
vt 0.903369 0.132910
vt 0.903369 0.341276
vt 0.166765 0.747239
vt 0.133746 0.977986
vt 0.133746 0.902758
vt 0.230659 0.912428
vt 0.133746 0.902760
vt 0.133746 0.978007
vt 0.163696 0.859795
vt 0.163696 0.831657
vt 0.166765 0.831657
vt 0.166765 0.859795
vt 0.157477 0.968623
vt 0.133746 0.881223
s 1
f 60/1/1 57/2/1 12/3/1 23/4/1
f 71/5/2 18/3/2 35/6/2 58/7/2
f 108/8/3 36/9/3 9/10/3 105/11/3
f 2/12/4 12/13/4 39/14/4 13/15/4
f 68/16/5 45/17/5 8/18/5 61/19/5
f 24/20/1 10/21/1 5/22/1 32/23/1
f 22/24/2 33/25/2 3/26/2 11/27/2
f 57/2/1 59/28/1 39/6/1 12/3/1
f 91/29/4 42/30/4 2/12/4 100/31/4
f 82/32/6 85/33/6 27/34/6 34/35/6
f 102/36/5 90/37/5 19/38/5 63/39/5
f 96/40/3 40/41/3 10/42/3 89/43/3
f 112/44/3 26/45/3 20/46/3 113/47/3
f 105/11/3 9/10/3 26/45/3 112/44/3
f 109/48/4 19/38/4 25/49/4 110/50/4
f 62/51/1 60/1/1 23/4/1 16/52/1
f 41/53/4 16/54/4 23/55/4 42/30/4
f 61/56/2 8/52/2 21/4/2 64/57/2
f 7/58/2 28/59/2 33/25/2 22/24/2
f 15/60/1 24/20/1 32/23/1 30/61/1
f 93/62/5 92/63/5 31/64/5 46/65/5
f 95/66/4 17/67/4 122/68/4 121/69/4
f 86/70/7 29/71/8 54/72/8 87/73/7
f 10/21/1 40/54/1 38/74/1 5/22/1
f 7/75/5 44/76/5 49/77/5 28/78/5
f 11/27/2 3/26/2 34/79/2 37/80/2
f 6/81/6 37/82/6 34/35/6 27/34/6
f 107/83/6 17/84/6 36/85/6 108/86/6
f 40/87/6 14/88/6 29/89/6 38/90/6
f 86/91/6 83/92/6 38/90/6 29/89/6
f 95/93/6 14/88/6 40/87/6 96/94/6
f 15/87/5 30/90/5 43/95/5 47/96/5
f 89/43/3 10/42/3 24/97/3 94/98/3
f 90/37/4 41/53/4 42/30/4 91/29/4
f 62/99/5 16/54/5 41/53/5 67/100/5
f 21/101/4 48/102/4 1/103/4 18/104/4
f 94/98/3 24/97/3 15/105/3 97/106/3
f 106/107/5 111/108/5 49/77/5 44/76/5
f 8/18/4 45/17/4 48/102/4 21/101/4
f 97/109/5 93/62/5 46/65/5 20/110/5
f 113/111/5 106/107/5 44/76/5 7/75/5
f 18/104/4 1/103/4 4/112/4 35/113/4
f 118/114/5 109/48/5 45/17/5 68/16/5
f 29/71/8 14/115/2 56/116/2 54/72/8
f 126/117/2 99/118/2 139/119/2 134/120/2
f 120/121/9 117/122/10 142/123/10 138/124/11
f 98/125/6 54/126/6 56/127/6 121/128/6
f 104/129/6 87/130/6 54/126/6 98/125/6
f 6/131/1 27/132/1 53/133/1 55/134/1
f 65/135/1 4/136/1 1/137/1 72/138/1
f 107/139/4 6/140/4 55/141/4 127/142/4
f 42/30/4 23/55/4 12/13/4 2/12/4
f 64/57/2 21/4/2 18/3/2 71/5/2
f 110/50/4 25/49/4 52/143/4 116/144/4
f 76/145/2 64/57/2 71/5/2 80/146/2
f 85/147/1 65/135/1 72/138/1 88/148/1
f 100/149/6 2/150/6 70/151/6 123/152/6
f 116/153/6 52/154/6 124/155/6 128/156/6
f 119/157/5 118/114/5 68/16/5 78/158/5
f 74/92/5 62/99/5 67/100/5 77/159/5
f 13/160/6 39/54/6 59/99/6 66/161/6
f 13/162/12 66/163/13 70/164/13 2/165/12
f 73/166/2 61/56/2 64/57/2 76/145/2
f 74/167/1 84/168/1 60/1/1 62/51/1
f 103/169/5 102/36/5 63/39/5 75/170/5
f 35/150/6 4/171/6 65/172/6 58/173/6
f 81/174/1 83/175/1 59/28/1 57/2/1
f 78/158/5 68/16/5 61/19/5 73/176/5
f 80/146/2 71/5/2 58/7/2 82/177/2
f 84/168/1 81/174/1 57/2/1 60/1/1
f 32/23/1 5/22/1 81/174/1 84/168/1
f 3/26/2 80/146/2 82/177/2 34/79/2
f 49/77/5 78/158/5 73/176/5 28/78/5
f 5/22/1 38/74/1 83/175/1 81/174/1
f 92/63/5 103/169/5 75/170/5 31/64/5
f 30/61/1 32/23/1 84/168/1 74/167/1
f 28/59/2 73/166/2 76/145/2 33/25/2
f 30/90/5 74/92/5 77/159/5 43/95/5
f 111/108/5 119/157/5 78/158/5 49/77/5
f 27/132/1 85/147/1 88/148/1 53/133/1
f 33/25/2 76/145/2 80/146/2 3/26/2
f 123/152/6 70/151/6 87/130/6 104/129/6
f 99/178/4 51/179/4 132/180/4 139/181/4
f 66/161/6 59/99/6 83/92/6 86/91/6
f 66/163/13 86/70/7 87/73/7 70/164/13
f 58/173/6 65/172/6 85/33/6 82/32/6
f 125/182/14 126/117/2 134/120/2 136/183/15
f 43/95/5 77/159/5 103/169/5 92/63/5
f 77/159/5 67/100/5 102/36/5 103/169/5
f 52/154/6 100/149/6 123/152/6 124/155/6
f 117/184/16 69/185/16 135/186/16 142/187/16
f 115/188/1 120/121/9 138/124/11 137/189/1
f 15/87/5 47/96/5 93/62/5 97/109/5
f 26/45/3 94/98/3 97/106/3 20/46/3
f 19/38/4 90/37/4 91/29/4 25/49/4
f 9/10/3 89/43/3 94/98/3 26/45/3
f 17/84/6 95/93/6 96/94/6 36/85/6
f 14/190/4 95/66/4 121/69/4 56/191/4
f 47/96/5 43/95/5 92/63/5 93/62/5
f 36/9/3 96/40/3 89/43/3 9/10/3
f 67/100/5 41/53/5 90/37/5 102/36/5
f 25/49/4 91/29/4 100/31/4 52/143/4
f 72/192/6 128/156/6 129/193/6 88/194/6
f 31/64/5 75/170/5 119/157/5 111/108/5
f 75/170/5 63/39/5 118/114/5 119/157/5
f 1/195/6 116/153/6 128/156/6 72/192/6
f 48/102/4 110/50/4 116/144/4 1/103/4
f 17/67/4 107/139/4 127/142/4 122/68/4
f 53/196/6 130/197/6 127/198/6 55/199/6
f 88/194/6 129/193/6 130/197/6 53/196/6
f 63/39/5 19/38/5 109/48/5 118/114/5
f 20/110/5 46/65/5 106/107/5 113/111/5
f 46/65/5 31/64/5 111/108/5 106/107/5
f 6/81/6 107/83/6 108/86/6 37/82/6
f 45/17/4 109/48/4 110/50/4 48/102/4
f 11/200/3 105/11/3 112/44/3 22/201/3
f 22/201/3 112/44/3 113/47/3 7/202/3
f 37/80/3 108/8/3 105/11/3 11/200/3
f 51/203/6 99/204/6 121/128/6 122/205/6
f 101/206/6 69/207/6 124/155/6 123/152/6
f 125/208/6 101/206/6 123/152/6 104/129/6
f 126/209/6 125/208/6 104/129/6 98/125/6
f 99/204/6 126/209/6 98/125/6 121/128/6
f 114/210/6 51/203/6 122/205/6 127/198/6
f 69/207/6 117/211/6 128/156/6 124/155/6
f 117/211/6 120/212/6 129/193/6 128/156/6
f 115/213/6 114/210/6 127/198/6 130/197/6
f 120/212/6 115/213/6 130/197/6 129/193/6
f 138/214/6 133/215/6 131/216/6 137/217/6
f 138/124/11 142/123/10 152/218/10 148/219/10
f 139/181/4 132/180/4 50/220/4 149/131/4
f 142/187/16 135/186/16 144/221/16 152/222/16
f 133/215/6 136/223/6 134/122/6 131/216/6
f 133/224/17 138/225/18 148/226/18 145/227/17
f 69/185/19 101/228/19 140/229/19 135/186/19
f 114/230/1 115/188/1 137/189/1 141/231/1
f 51/179/4 114/232/4 141/233/4 132/180/4
f 101/140/20 125/182/14 136/183/15 140/234/20
f 147/235/6 79/236/6 50/237/6 151/238/6
f 152/239/6 144/240/6 145/241/6 148/242/6
f 144/240/6 150/243/6 146/244/6 145/241/6
f 79/236/6 143/245/6 149/246/6 50/237/6
f 136/247/21 133/224/17 145/227/17 146/137/21
f 134/120/2 139/119/2 149/248/2 143/249/2
f 135/186/19 140/229/19 150/250/19 144/221/19
f 141/231/1 137/189/1 147/251/1 151/252/1
f 137/253/22 131/254/22 79/255/22 147/256/22
f 132/180/4 141/233/4 151/257/4 50/220/4
f 131/254/22 134/226/22 143/225/22 79/255/22
f 140/234/20 136/183/15 146/258/20 150/218/20
