# Blender 4.5.3 LTS
# www.blender.org
mtllib roof_3.mtl
o Rooftop_Wall_Segment.151
v 0.600000 0.038128 0.173719
v 0.600000 0.669757 0.173719
v -0.331770 0.080370 0.080056
v 0.000000 0.669757 0.173719
v 0.600000 0.038128 0.083719
v 0.600000 0.669757 0.083719
v 0.000000 0.669757 0.083719
v 0.600000 0.597822 0.173719
v 0.000000 0.597822 0.173719
v 0.600000 0.597822 0.083719
v 0.418150 0.038128 0.173719
v 0.418150 0.669757 0.173719
v 0.418150 0.669757 0.083719
v 0.418150 0.597822 0.173719
v 0.351371 0.669757 0.173719
v -0.331770 0.555580 0.080056
v 0.331770 0.080370 0.080056
v 0.351371 0.669757 0.083719
v -0.600000 0.038128 0.173719
v -0.600000 0.669757 0.173719
v -0.600000 0.038128 0.083719
v -0.600000 0.669757 0.083719
v -0.600000 0.597822 0.173719
v -0.600000 0.597822 0.083719
v -0.418150 0.038128 0.173719
v -0.418150 0.669757 0.173719
v -0.418150 0.669757 0.083719
v -0.418150 0.597822 0.173719
v -0.351371 0.669757 0.173719
v 0.331770 0.555580 0.080056
v 0.000000 0.080370 0.080056
v -0.351371 0.669757 0.083719
v 0.600000 0.038128 -0.006281
v 0.600000 0.669757 -0.006281
v 0.000000 0.038128 -0.006281
v 0.000000 0.669757 -0.006281
v 0.600000 0.597822 -0.006281
v 0.000000 0.597822 -0.006281
v 0.418150 0.038128 -0.006281
v 0.418150 0.669757 -0.006281
v 0.418150 0.597822 -0.006281
v 0.351371 0.669757 -0.006281
v 0.351371 0.597822 -0.006281
v 0.351371 0.038128 -0.006281
v -0.600000 0.038128 -0.006281
v -0.600000 0.669757 -0.006281
v -0.600000 0.597822 -0.006281
v -0.418150 0.038128 -0.006281
v -0.418150 0.669757 -0.006281
v -0.418150 0.597822 -0.006281
v -0.351371 0.669757 -0.006281
v -0.351371 0.597822 -0.006281
v -0.351371 0.038128 -0.006281
v 0.351371 0.597822 0.173719
v 0.000000 0.555580 0.080056
v 0.000000 0.038128 0.173719
v 0.351371 0.038128 0.173719
v -0.351371 0.597822 0.173719
v -0.351371 0.038128 0.173719
v 0.000000 0.555580 0.125677
v 0.000000 0.080370 0.125677
v 0.351371 0.597822 0.125677
v 0.000000 0.597822 0.125677
v 0.351371 0.038128 0.125677
v 0.418150 0.038128 0.125677
v 0.418150 0.597822 0.125677
v 0.000000 0.038128 0.125677
v -0.351371 0.597822 0.125677
v -0.351371 0.038128 0.125677
v -0.418150 0.038128 0.125677
v -0.418150 0.597822 0.125677
v 0.331770 0.555580 0.125677
v 0.331770 0.080370 0.125677
v -0.331770 0.555580 0.125677
v -0.331770 0.080370 0.125677
v 0.351371 0.669757 0.207735
v 0.000000 0.669757 0.207735
v 0.600000 0.669757 0.207735
v 0.600000 0.597822 0.207735
v 0.000000 0.597822 0.207735
v 0.351371 0.597822 0.207735
v 0.418150 0.669757 0.207735
v 0.418150 0.597822 0.207735
v -0.351371 0.669757 0.207735
v -0.600000 0.669757 0.207735
v -0.600000 0.597822 0.207735
v -0.351371 0.597822 0.207735
v -0.418150 0.669757 0.207735
v -0.418150 0.597822 0.207735
v 0.418150 0.000001 0.173719
v 0.600000 0.000001 0.173719
v 0.000000 0.000001 0.083719
v 0.000000 0.000001 0.173719
v 0.600000 0.000001 0.083719
v 0.351371 0.000001 0.083719
v 0.351371 0.000001 0.173719
v 0.418150 0.000001 0.083719
v -0.418150 0.000001 0.173719
v -0.600000 0.000001 0.173719
v -0.600000 0.000001 0.083719
v -0.351371 0.000001 0.083719
v -0.351371 0.000001 0.173719
v -0.418150 0.000001 0.083719
v 0.418150 0.000001 -0.006281
v 0.600000 0.000001 -0.006281
v 0.000000 0.000001 -0.006281
v 0.351371 0.000001 -0.006281
v -0.418150 0.000001 -0.006281
v -0.600000 0.000001 -0.006281
v -0.351371 0.000001 -0.006281
v 0.600001 1.527368 -1.213812
v 0.000000 1.919926 -2.613740
v 0.600001 1.527368 -1.344765
v 0.600001 1.721137 -1.213812
v 0.600001 1.781546 -1.344765
v 0.600002 1.418075 -1.213812
v 0.000000 1.419717 -1.344894
v 0.600002 1.418075 -1.344894
v 0.600001 1.883250 -1.829244
v 0.000000 1.527368 -2.613740
v 0.600001 1.527368 -2.613740
v 0.600002 1.418075 -2.613868
v 0.000000 1.419717 -2.613868
v 0.600001 1.919926 -2.613740
v 0.600001 1.527368 -1.048363
v 0.600002 1.418105 -1.048234
v 0.000000 1.419747 -1.048234
v 0.600001 1.620362 -1.048363
v 0.600002 1.418077 -1.829372
v 0.000000 1.620362 -1.048363
v 0.000000 1.527368 -1.048363
v 0.600002 -0.060376 -1.345245
v 0.600002 -0.060376 -1.214163
v 0.000000 -0.058734 -1.345245
v 0.600001 1.527368 -1.829244
v 0.000000 1.419717 -1.829372
v 0.600002 -0.060346 -1.048585
v 0.000000 -0.058704 -1.048585
v 0.000000 -0.060376 -1.214163
v 0.000000 0.643004 -1.048429
v 0.600002 0.641332 -1.214007
v 0.000000 0.642974 -1.345090
v 0.467010 0.678977 -1.345081
v 0.000000 1.393756 -1.048263
v 0.600002 1.392084 -1.213841
v 0.000000 1.393726 -1.344923
v 0.467010 1.354685 -1.344932
v 0.467010 1.354715 -1.048272
v 0.467010 0.679007 -1.048421
v 0.600002 1.392114 -1.048263
v 0.600002 0.641362 -1.048429
v 0.000000 0.680403 -1.048421
v 0.000000 1.356111 -1.048272
v 0.000000 1.356081 -1.344932
v 0.600002 1.392084 -1.344923
v 0.000000 0.680373 -1.345081
v 0.600002 0.641332 -1.345090
v 0.600001 1.766773 -1.213812
v 0.000000 1.766773 -1.213812
v 0.000000 1.827575 -1.344766
v 0.600001 1.827575 -1.344765
v 0.000000 1.964801 -2.613740
v 0.600001 1.964801 -2.613740
v 0.600001 1.666854 -1.048363
v 0.000000 1.666854 -1.048363
v 0.000000 1.932674 -1.829244
v 0.600001 1.932674 -1.829244
v 0.000000 1.544161 -0.929470
v 0.600001 1.544161 -0.929470
v 0.000000 1.590654 -0.929470
v 0.600001 1.590654 -0.929470
v 0.000000 1.481912 -0.848976
v 0.600001 1.481912 -0.848976
v 0.000000 1.528405 -0.848976
v 0.600001 1.528405 -0.848976
v -0.600001 1.527368 -1.213812
v -0.600001 1.527368 -1.344765
v -0.600001 1.721137 -1.213812
v -0.600001 1.781546 -1.344765
v -0.600002 1.418075 -1.213812
v -0.600002 1.418075 -1.344894
v -0.600001 1.883250 -1.829244
v -0.600001 1.527368 -2.613740
v -0.600002 1.418075 -2.613868
v -0.600001 1.919926 -2.613740
v -0.600001 1.527368 -1.048363
v -0.600002 1.418105 -1.048234
v -0.600001 1.620362 -1.048363
v -0.600002 1.418077 -1.829372
v -0.600002 -0.060376 -1.345245
v -0.600002 -0.060376 -1.214163
v -0.600001 1.527368 -1.829244
v -0.600002 -0.060346 -1.048585
v -0.600002 0.641332 -1.214007
v -0.467010 0.678977 -1.345081
v -0.600002 1.392084 -1.213841
v -0.467010 1.354685 -1.344932
v -0.467010 1.354715 -1.048272
v -0.467010 0.679007 -1.048421
v -0.600002 1.392114 -1.048263
v -0.600002 0.641362 -1.048429
v -0.600002 1.392084 -1.344923
v -0.600002 0.641332 -1.345090
v -0.600001 1.766773 -1.213812
v -0.600001 1.827575 -1.344765
v -0.600001 1.964801 -2.613740
v -0.600001 1.666854 -1.048363
v -0.600001 1.932674 -1.829244
v -0.600001 1.544161 -0.929470
v -0.600001 1.590654 -0.929470
v -0.600001 1.481912 -0.848976
v -0.600001 1.528405 -0.848976
vn 1.0000 -0.0000 -0.0000
vn -0.0000 -0.0000 -1.0000
vn -0.0000 1.0000 -0.0000
vn -0.0000 -0.0000 1.0000
vn -0.0000 -1.0000 -0.0000
vn -1.0000 -0.0000 -0.0000
vn -0.0027 -1.0000 -0.0000
vn -0.0000 0.0006 1.0000
vn -0.0000 0.0006 -1.0000
vn -0.0000 0.0012 -1.0000
vn -0.0014 -1.0000 -0.0006
vn -0.0014 -1.0000 0.0051
vn -0.0000 -1.0000 0.0051
vn -0.0000 -1.0000 -0.0006
vn -0.0014 -1.0000 -0.0063
vn -0.0000 -1.0000 -0.0063
vn -0.0000 0.0002 -1.0000
vn -0.0000 -0.0002 1.0000
vn -0.0000 -1.0000 0.0001
vn -0.0030 -1.0000 0.0001
vn -0.0000 0.0011 -1.0000
vn -0.0000 0.0007 -1.0000
vn -0.0000 -0.0007 1.0000
vn -0.0000 1.0000 -0.0001
vn 0.0030 1.0000 -0.0001
vn -0.0000 0.8828 0.4697
vn -0.0000 0.9479 0.3185
vn -0.0000 0.9992 0.0409
vn -0.0000 0.9919 0.1269
vn -0.0000 0.8490 0.5283
vn -0.0000 0.8173 0.5762
vn -0.0000 -0.8419 -0.5396
vn -0.0000 -0.8173 -0.5762
vn -0.0000 -0.7911 -0.6117
vn -0.0000 0.7911 0.6117
vn 0.0027 -1.0000 -0.0000
vn 0.0014 -1.0000 -0.0006
vn 0.0014 -1.0000 0.0051
vn 0.0014 -1.0000 -0.0063
vn 0.0030 -1.0000 0.0001
vn -0.0030 1.0000 -0.0001
vt 0.283516 0.934848
vt 0.283516 0.979595
vt 0.227531 0.979595
vt 0.227531 0.934848
vt 0.466606 0.365492
vt 0.499754 0.365492
vt 0.499754 0.384418
vt 0.466606 0.384418
vt 0.848585 0.742728
vt 0.674170 0.742727
vt 0.674170 0.698053
vt 0.848585 0.698053
vt 0.499754 0.698053
vt 0.499754 0.681168
vt 0.674170 0.681168
vt 0.283515 0.586690
vt 0.227531 0.586690
vt 0.376338 0.662242
vt 0.376338 0.384418
vt 0.466606 0.662242
vt 0.972001 0.893636
vt 0.881733 0.893636
vt 0.881733 0.876752
vt 0.972001 0.876752
vt 0.972001 0.742728
vt 0.881733 0.742728
vt 0.881733 0.698053
vt 0.972001 0.698053
vt 0.848585 0.662242
vt 0.881733 0.662242
vt 0.881733 0.681168
vt 0.848585 0.681168
vt 0.848585 0.893636
vt 0.881733 0.917484
vt 0.848585 0.917484
vt 0.812936 0.403614
vt 0.839380 0.403614
vt 0.839380 0.422638
vt 0.812936 0.422638
vt 0.499754 0.662242
vt 0.466606 0.681168
vt 0.466606 0.893636
vt 0.376338 0.893636
vt 0.376338 0.876752
vt 0.466606 0.876752
vt 0.076289 0.935514
vt 0.132502 0.935514
vt 0.132502 0.980443
vt 0.076289 0.980443
vt 0.132502 0.585939
vt 0.076289 0.585939
vt 0.076289 0.562125
vt 0.132502 0.562125
vt 0.499754 0.742727
vt 0.848585 0.876752
vt 0.972001 0.662242
vt 0.881733 0.384418
vt 0.972001 0.384418
vt 0.153747 0.935514
vt 0.153747 0.980443
vt 0.376338 0.742727
vt 0.376338 0.698053
vt 0.466606 0.698053
vt 0.466606 0.742727
vt 0.376338 0.681168
vt 0.508217 0.403614
vt 0.534660 0.403614
vt 0.534660 0.422638
vt 0.508217 0.422638
vt 0.673798 0.403614
vt 0.673798 0.422638
vt 0.227531 0.562973
vt 0.283515 0.562973
vt 0.499754 0.893636
vt 0.499754 0.876752
vt 0.339500 0.934848
vt 0.339500 0.979595
vt 0.674170 0.662242
vt 0.848585 0.787402
vt 0.674170 0.787402
vt 0.848585 0.087668
vt 0.674170 0.087668
vt 0.674170 0.051961
vt 0.848585 0.051961
vt 0.339500 0.586690
vt 0.972001 0.365492
vt 0.881733 0.365492
vt 0.881733 0.087668
vt 0.972001 0.087668
vt 0.881733 0.051961
vt 0.972001 0.051961
vt 0.972001 0.787402
vt 0.881733 0.787402
vt 0.848585 0.365492
vt 0.674170 0.365492
vt 0.020077 0.980443
vt 0.020077 0.935514
vt 0.972001 0.681168
vt 0.499754 0.787402
vt 0.499754 0.087668
vt 0.499754 0.051961
vt 0.020077 0.585939
vt 0.376338 0.365492
vt 0.376338 0.087668
vt 0.466606 0.087668
vt 0.376338 0.051961
vt 0.466606 0.051961
vt 0.466606 0.787402
vt 0.376338 0.787402
vt 0.020077 0.562125
vt 0.339500 0.562973
vt 0.858404 0.422638
vt 0.858404 0.644269
vt 0.839380 0.644269
vt 0.674170 0.893636
vt 0.674170 0.917484
vt 0.499754 0.917484
vt 0.489193 0.644269
vt 0.489193 0.422638
vt 0.508217 0.644269
vt 0.466606 0.917484
vt 0.785495 0.462499
vt 0.785495 0.601548
vt 0.772146 0.601548
vt 0.772146 0.462499
vt 0.812936 0.644269
vt 0.577991 0.449150
vt 0.675068 0.449150
vt 0.675068 0.462499
vt 0.577991 0.462499
vt 0.534660 0.644269
vt 0.673798 0.627542
vt 0.805174 0.627542
vt 0.673798 0.644269
vt 0.805174 0.439365
vt 0.673798 0.439365
vt 0.542422 0.627542
vt 0.542422 0.439365
vt 0.577991 0.601548
vt 0.675068 0.601548
vt 0.675068 0.614897
vt 0.577991 0.614897
vt 0.564642 0.601548
vt 0.564642 0.462499
vt 0.772146 0.614897
vt 0.772146 0.449150
vt 0.499754 0.953192
vt 0.674170 0.953192
vt 0.376338 0.953192
vt 0.376338 0.917484
vt 0.466606 0.953192
vt 0.848585 0.953192
vt 0.972001 0.953192
vt 0.881733 0.953192
vt 0.972001 0.917484
vt 0.674170 0.876752
vt 0.848585 0.681168
vt 0.881733 0.681168
vt 0.972001 0.681168
vt 0.466606 0.681168
vt 0.206372 0.979595
vt 0.206372 0.934848
vt 0.466606 0.832077
vt 0.376338 0.832077
vt 0.499754 0.832077
vt 0.674170 0.832077
vt 0.881733 0.832077
vt 0.972001 0.832077
vt 0.848585 0.832077
vt 0.848585 0.384418
vt 0.674170 0.384418
vt 0.210855 0.356407
vt 0.210746 0.377683
vt 0.116428 0.377311
vt 0.116537 0.356034
vt 0.378272 0.621218
vt 0.673892 0.621274
vt 0.673890 0.826016
vt 0.378159 0.825903
vt 0.969988 0.393053
vt 0.969988 0.419769
vt 0.674202 0.419769
vt 0.674202 0.393455
vt 0.363135 0.463445
vt 0.210434 0.456588
vt 0.210473 0.446966
vt 0.363169 0.454709
vt 0.673890 0.854170
vt 0.673889 0.956599
vt 0.378410 0.956731
vt 0.378245 0.854362
vt 0.090750 0.423818
vt 0.058618 0.404239
vt 0.058653 0.395188
vt 0.090785 0.414934
vt 0.058725 0.377084
vt 0.058784 0.355812
vt 0.091018 0.355934
vt 0.090934 0.377211
vt 0.363580 0.357010
vt 0.363471 0.378286
vt 0.116197 0.435755
vt 0.116233 0.426794
vt 0.091653 0.204718
vt 0.059419 0.204597
vt 0.059988 0.067989
vt 0.092222 0.068110
vt 0.969988 0.442506
vt 0.674202 0.442506
vt 0.035530 0.389313
vt 0.035566 0.380261
vt 0.378374 0.494808
vt 0.673893 0.494928
vt 0.378284 0.074741
vt 0.378430 0.031565
vt 0.673895 0.031843
vt 0.673895 0.075043
vt 0.378151 0.108918
vt 0.673895 0.109281
vt 0.673894 0.292430
vt 0.378215 0.292034
vt 0.969988 0.203136
vt 0.674202 0.203537
vt 0.674202 0.031967
vt 0.969988 0.031565
vt 0.117172 0.204819
vt 0.117741 0.068211
vt 0.116563 0.350975
vt 0.091044 0.350874
vt 0.674222 0.551572
vt 0.674222 0.515535
vt 0.730954 0.515535
vt 0.730954 0.551572
vt 0.058809 0.350752
vt 0.378353 0.487975
vt 0.673894 0.488202
vt 0.674202 0.387100
vt 0.969988 0.386698
vt 0.813037 0.551546
vt 0.813037 0.515508
vt 0.904427 0.377554
vt 0.904427 0.212340
vt 0.674202 0.212682
vt 0.674202 0.377895
vt 0.443763 0.301850
vt 0.443861 0.478161
vt 0.673894 0.302186
vt 0.673894 0.478439
vt 0.869769 0.551546
vt 0.869769 0.515508
vt 0.674202 0.619947
vt 0.969988 0.619947
vt 0.969988 0.655249
vt 0.674202 0.655249
vt 0.674202 0.968435
vt 0.674201 0.776461
vt 0.969988 0.776461
vt 0.969988 0.968435
vt 0.674202 0.572689
vt 0.969988 0.572689
vt 0.673888 0.968301
vt 0.378428 0.968433
vt 0.019908 0.377132
vt 0.019943 0.368081
vt 0.674202 0.538161
vt 0.969988 0.538161
vt 0.969988 0.477034
vt 0.674202 0.477034
vt 0.969988 0.513281
vt 0.674202 0.513281
vt 0.674201 0.501914
vt 0.969988 0.501914
vt 0.175806 0.360259
vt 0.271124 0.360353
vt 0.271128 0.381856
vt 0.175810 0.381761
vt 0.969513 0.621220
vt 0.969622 0.825905
vt 0.378415 0.393053
vt 0.378415 0.419769
vt 0.021379 0.467672
vt 0.021388 0.458843
vt 0.175740 0.451779
vt 0.175731 0.461503
vt 0.969535 0.854364
vt 0.969368 0.956733
vt 0.296846 0.428983
vt 0.296855 0.420004
vt 0.329426 0.400209
vt 0.329416 0.409357
vt 0.329444 0.381913
vt 0.296893 0.381881
vt 0.296914 0.360378
vt 0.329490 0.360417
vt 0.021464 0.381609
vt 0.021460 0.360106
vt 0.271079 0.431864
vt 0.271070 0.440920
vt 0.297026 0.207558
vt 0.297132 0.069501
vt 0.329709 0.069539
vt 0.329603 0.207596
vt 0.378415 0.442506
vt 0.352832 0.385240
vt 0.352823 0.394388
vt 0.969413 0.494809
vt 0.969506 0.074742
vt 0.969360 0.031565
vt 0.969639 0.108918
vt 0.969574 0.292035
vt 0.378415 0.203136
vt 0.378415 0.031565
vt 0.271237 0.207533
vt 0.271343 0.069475
vt 0.271123 0.355239
vt 0.296913 0.355265
vt 0.617490 0.551572
vt 0.617490 0.515535
vt 0.329490 0.355303
vt 0.969434 0.487976
vt 0.378415 0.386698
vt 0.535406 0.551546
vt 0.535406 0.515508
vt 0.443977 0.377554
vt 0.443977 0.212340
vt 0.904026 0.301850
vt 0.903926 0.478161
vt 0.478674 0.551546
vt 0.478674 0.515508
vt 0.378415 0.655249
vt 0.378415 0.619947
vt 0.378415 0.968435
vt 0.378415 0.776461
vt 0.378415 0.572689
vt 0.969349 0.968435
vt 0.368681 0.373009
vt 0.368672 0.382156
vt 0.378415 0.538161
vt 0.378415 0.477034
vt 0.378415 0.513281
vt 0.378415 0.501914
s 1
f 10/1/1 6/2/1 2/3/1 8/4/1
f 48/5/2 53/6/2 110/7/2 108/8/2
f 18/9/3 7/10/3 4/11/3 15/12/3
f 4/11/3 29/13/3 84/14/3 77/15/3
f 5/16/1 10/1/1 8/4/1 1/17/1
f 1/18/4 8/19/4 14/8/4 11/20/4
f 23/21/5 28/22/5 89/23/5 86/24/5
f 6/25/3 13/26/3 12/27/3 2/28/3
f 59/29/4 25/30/4 98/31/4 102/32/4
f 58/33/5 28/22/5 71/34/5 68/35/5
f 57/36/3 11/37/3 65/38/3 64/39/3
f 11/20/4 57/40/4 96/14/4 90/41/4
f 14/42/5 8/43/5 79/44/5 83/45/5
f 13/26/3 18/9/3 15/12/3 12/27/3
f 24/46/6 23/47/6 20/48/6 22/49/6
f 19/50/6 21/51/6 100/52/6 99/53/6
f 32/54/3 29/13/3 4/11/3 7/10/3
f 28/22/5 58/33/5 87/55/5 89/23/5
f 21/51/6 19/50/6 23/47/6 24/46/6
f 19/56/4 25/30/4 28/57/4 23/58/4
f 20/48/6 23/47/6 86/59/6 85/60/6
f 22/61/3 20/62/3 26/63/3 27/64/3
f 1/18/4 11/20/4 90/41/4 91/65/4
f 25/66/3 59/67/3 69/68/3 70/69/3
f 56/70/3 57/36/3 64/39/3 67/71/3
f 5/16/1 1/17/1 91/72/1 94/73/1
f 54/74/5 14/42/5 83/45/5 81/75/5
f 27/64/3 26/63/3 29/13/3 32/54/3
f 10/1/1 37/76/1 34/77/1 6/2/1
f 56/78/4 59/29/4 102/32/4 93/15/4
f 18/9/3 42/79/3 36/80/3 7/10/3
f 43/81/2 38/82/2 36/83/2 42/84/2
f 5/16/1 33/85/1 37/76/1 10/1/1
f 33/86/2 39/87/2 41/88/2 37/89/2
f 37/89/2 41/88/2 40/90/2 34/91/2
f 6/25/3 34/92/3 40/93/3 13/26/3
f 39/87/2 33/86/2 105/58/2 104/57/2
f 43/81/2 44/94/2 35/95/2 38/82/2
f 41/88/2 39/87/2 44/94/2 43/81/2
f 57/40/4 56/78/4 93/15/4 96/14/4
f 41/88/2 43/81/2 42/84/2 40/90/2
f 13/26/3 40/93/3 42/79/3 18/9/3
f 24/46/6 22/49/6 46/96/6 47/97/6
f 25/30/4 19/56/4 99/98/4 98/31/4
f 32/54/3 7/10/3 36/80/3 51/99/3
f 52/100/2 51/101/2 36/83/2 38/82/2
f 21/51/6 24/46/6 47/97/6 45/102/6
f 45/103/2 47/104/2 50/105/2 48/5/2
f 47/104/2 46/106/2 49/107/2 50/105/2
f 22/61/3 27/64/3 49/108/3 46/109/3
f 21/51/6 45/102/6 109/110/6 100/52/6
f 52/100/2 38/82/2 35/95/2 53/6/2
f 50/105/2 52/100/2 53/6/2 48/5/2
f 33/85/1 5/16/1 94/73/1 105/111/1
f 50/105/2 49/107/2 51/101/2 52/100/2
f 27/64/3 32/54/3 51/99/3 49/108/3
f 11/112/6 14/113/6 66/114/6 65/38/6
f 54/74/5 9/115/5 63/116/5 62/117/5
f 59/67/3 56/70/3 67/71/3 69/68/3
f 28/118/1 25/119/1 70/69/1 71/120/1
f 9/115/5 58/33/5 68/35/5 63/116/5
f 14/42/5 54/74/5 62/117/5 66/121/5
f 73/122/6 72/123/6 30/124/6 17/125/6
f 66/114/4 62/126/4 64/39/4 65/38/4
f 75/127/3 61/128/3 31/129/3 3/130/3
f 71/120/4 70/69/4 69/68/4 68/131/4
f 60/132/4 72/133/4 62/126/4 63/134/4
f 73/135/4 61/136/4 67/71/4 64/39/4
f 72/133/4 73/135/4 64/39/4 62/126/4
f 74/137/4 60/132/4 63/134/4 68/131/4
f 61/136/4 75/138/4 69/68/4 67/71/4
f 75/138/4 74/137/4 68/131/4 69/68/4
f 16/139/5 55/140/5 60/141/5 74/142/5
f 74/143/1 75/144/1 3/130/1 16/139/1
f 55/140/5 30/124/5 72/145/5 60/141/5
f 61/128/3 73/146/3 17/125/3 31/129/3
f 81/147/4 76/117/4 77/116/4 80/148/4
f 79/149/4 78/150/4 82/121/4 83/151/4
f 83/151/4 82/121/4 76/117/4 81/147/4
f 87/152/4 80/148/4 77/116/4 84/35/4
f 86/153/4 89/154/4 88/34/4 85/155/4
f 89/154/4 87/152/4 84/35/4 88/34/4
f 9/115/5 54/74/5 81/75/5 80/156/5
f 58/33/5 9/115/5 80/156/5 87/55/5
f 15/12/3 4/11/3 77/15/3 76/157/3
f 2/28/3 12/27/3 82/158/3 78/159/3
f 26/63/3 20/62/3 85/65/3 88/160/3
f 12/27/3 15/12/3 76/157/3 82/158/3
f 29/13/3 26/63/3 88/160/3 84/14/3
f 8/4/1 2/3/1 78/161/1 79/162/1
f 97/163/5 94/164/5 91/109/5 90/108/5
f 95/165/5 97/163/5 90/108/5 96/99/5
f 92/166/5 95/165/5 96/99/5 93/80/5
f 103/167/5 98/93/5 99/92/5 100/168/5
f 101/169/5 102/79/5 98/93/5 103/167/5
f 92/166/5 93/80/5 102/79/5 101/169/5
f 97/163/5 104/45/5 105/44/5 94/164/5
f 95/165/5 107/75/5 104/45/5 97/163/5
f 92/166/5 106/156/5 107/75/5 95/165/5
f 103/167/5 100/168/5 109/24/5 108/23/5
f 101/169/5 103/167/5 108/23/5 110/55/5
f 92/166/5 101/169/5 110/55/5 106/156/5
f 44/94/2 39/87/2 104/57/2 107/170/2
f 45/103/2 48/5/2 108/8/2 109/19/2
f 53/6/2 35/95/2 106/171/2 110/7/2
f 35/95/2 44/94/2 107/170/2 106/171/2
f 30/124/4 55/140/4 31/129/4 17/125/4
f 55/140/4 16/139/4 3/130/4 31/129/4
f 129/172/1 135/173/1 113/174/1 118/175/1
f 129/176/7 136/177/5 123/178/5 122/179/7
f 126/180/4 125/181/8 131/182/8 127/183/4
f 163/184/1 167/185/1 119/186/1 124/187/1
f 120/188/9 112/189/2 124/190/2 121/191/9
f 158/192/1 164/193/1 128/194/1 114/195/1
f 125/196/1 126/197/1 116/198/1 111/199/1
f 121/191/9 122/179/10 123/178/10 120/188/9
f 129/172/1 122/200/1 121/201/1 135/173/1
f 167/185/1 161/202/1 115/203/1 119/186/1
f 161/202/1 158/192/1 114/195/1 115/203/1
f 141/204/1 151/205/1 137/206/1 133/207/1
f 128/208/4 130/209/4 131/182/8 125/181/8
f 128/194/1 164/193/1 171/210/1 169/211/1
f 118/212/7 117/213/5 136/177/5 129/176/7
f 133/214/11 137/215/12 138/216/13 139/217/14
f 132/218/15 133/214/11 139/217/14 134/219/16
f 142/220/17 157/221/17 132/218/17 134/219/17
f 151/222/18 140/223/18 138/224/18 137/225/18
f 157/226/1 141/204/1 133/207/1 132/227/1
f 155/228/1 145/229/1 141/204/1 157/226/1
f 153/230/19 154/231/19 147/232/20 148/233/20
f 145/229/1 150/234/1 151/205/1 141/204/1
f 116/198/1 126/197/1 150/234/1 145/229/1
f 117/213/21 118/212/21 155/235/22 146/236/22
f 126/180/4 127/183/4 144/237/23 150/238/23
f 118/175/1 116/198/1 145/229/1 155/228/1
f 149/239/6 148/233/6 147/232/6 143/240/6
f 148/241/18 149/242/18 151/222/18 150/238/23
f 149/242/18 152/243/18 140/223/18 151/222/18
f 153/244/18 148/241/18 150/238/23 144/237/23
f 143/245/17 147/246/17 155/235/22 157/221/17
f 156/247/17 143/245/17 157/221/17 142/220/17
f 147/246/17 154/248/17 146/236/22 155/235/22
f 152/249/24 149/239/25 143/240/25 156/250/24
f 159/251/26 158/252/26 161/253/27 160/254/27
f 162/255/28 166/256/29 167/257/29 163/258/28
f 165/259/30 164/260/30 158/252/26 159/251/26
f 161/253/27 167/257/29 166/256/29 160/254/27
f 124/187/1 119/186/1 135/173/1 121/201/1
f 119/186/1 115/203/1 113/174/1 135/173/1
f 115/203/1 114/195/1 111/199/1 113/174/1
f 114/195/1 128/194/1 125/196/1 111/199/1
f 112/189/2 162/261/2 163/262/2 124/190/2
f 113/174/1 111/199/1 116/198/1 118/175/1
f 169/211/1 171/210/1 175/263/1 173/264/1
f 164/260/30 165/259/30 170/265/31 171/266/31
f 130/209/32 128/208/32 169/267/33 168/268/33
f 175/269/4 174/270/4 172/271/4 173/272/4
f 168/268/33 169/267/33 173/272/34 172/271/34
f 171/266/31 170/265/31 174/270/35 175/269/35
f 189/273/6 181/274/6 177/275/6 192/276/6
f 189/277/36 184/278/36 123/178/5 136/177/5
f 187/279/4 127/183/4 131/182/8 186/280/8
f 206/281/6 185/282/6 182/283/6 208/284/6
f 120/188/9 183/285/9 185/286/2 112/189/2
f 204/287/6 178/288/6 188/289/6 207/290/6
f 186/291/6 176/292/6 180/293/6 187/294/6
f 183/285/9 120/188/9 123/178/10 184/278/10
f 189/273/6 192/276/6 183/295/6 184/296/6
f 208/284/6 182/283/6 179/297/6 205/298/6
f 205/298/6 179/297/6 178/288/6 204/287/6
f 194/299/6 191/300/6 193/301/6 201/302/6
f 188/303/4 186/280/8 131/182/8 130/209/4
f 188/289/6 209/304/6 210/305/6 207/290/6
f 181/306/36 189/277/36 136/177/5 117/213/5
f 191/307/37 139/217/14 138/216/13 193/308/38
f 190/309/39 134/219/16 139/217/14 191/307/37
f 142/220/17 134/219/17 190/309/17 203/310/17
f 201/311/18 193/312/18 138/224/18 140/223/18
f 203/313/6 190/314/6 191/300/6 194/299/6
f 202/315/6 203/313/6 194/299/6 196/316/6
f 153/230/19 198/317/40 197/318/40 154/231/19
f 196/316/6 194/299/6 201/302/6 200/319/6
f 180/293/6 196/316/6 200/319/6 187/294/6
f 117/213/21 146/236/22 202/320/22 181/306/21
f 187/279/4 200/321/23 144/237/23 127/183/4
f 181/274/6 202/315/6 196/316/6 180/293/6
f 199/322/1 195/323/1 197/318/1 198/317/1
f 198/324/18 200/321/23 201/311/18 199/325/18
f 199/325/18 201/311/18 140/223/18 152/243/18
f 153/244/18 144/237/23 200/321/23 198/324/18
f 195/326/17 203/310/17 202/320/22 197/327/17
f 156/247/17 142/220/17 203/310/17 195/326/17
f 197/327/17 202/320/22 146/236/22 154/248/17
f 152/328/24 156/329/24 195/323/41 199/322/41
f 159/251/26 160/254/27 205/330/27 204/331/26
f 162/255/28 206/332/28 208/333/29 166/256/29
f 165/259/30 159/251/26 204/331/26 207/334/30
f 205/330/27 160/254/27 166/256/29 208/333/29
f 185/282/6 183/295/6 192/276/6 182/283/6
f 182/283/6 192/276/6 177/275/6 179/297/6
f 179/297/6 177/275/6 176/292/6 178/288/6
f 178/288/6 176/292/6 186/291/6 188/289/6
f 112/189/2 185/286/2 206/335/2 162/261/2
f 177/275/6 181/274/6 180/293/6 176/292/6
f 209/304/6 211/336/6 212/337/6 210/305/6
f 207/334/30 210/338/31 170/265/31 165/259/30
f 130/209/32 168/268/33 209/339/33 188/303/32
f 212/340/4 211/341/4 172/271/4 174/270/4
f 168/268/33 172/271/34 211/341/34 209/339/33
f 210/338/31 212/340/35 174/270/35 170/265/31
