# Blender 5.0.1
# www.blender.org
mtllib roof_1.mtl
o Rooftop_Wall_Segment.106
v 0.600000 0.038128 0.173719
v 0.600000 0.669757 0.173719
v -0.331770 0.080370 0.080056
v 0.000000 0.669757 0.173719
v 0.600000 0.038128 0.083719
v 0.600000 0.669757 0.083719
v 0.000000 0.669757 0.083719
v 0.600000 0.597822 0.173719
v 0.000000 0.597822 0.173719
v 0.600000 0.597822 0.083719
v 0.418150 0.038128 0.173719
v 0.418150 0.669757 0.173719
v 0.418150 0.669757 0.083719
v 0.418150 0.597822 0.173719
v 0.351371 0.669757 0.173719
v -0.331770 0.555580 0.080056
v 0.331770 0.080370 0.080056
v 0.351371 0.669757 0.083719
v -0.600000 0.038128 0.173719
v -0.600000 0.669757 0.173719
v -0.600000 0.038128 0.083719
v -0.600000 0.669757 0.083719
v -0.600000 0.597822 0.173719
v -0.600000 0.597822 0.083719
v -0.418150 0.038128 0.173719
v -0.418150 0.669757 0.173719
v -0.418150 0.669757 0.083719
v -0.418150 0.597822 0.173719
v -0.351371 0.669757 0.173719
v 0.331770 0.555580 0.080056
v 0.000000 0.080370 0.080056
v -0.351371 0.669757 0.083719
v 0.600000 0.038128 -0.006281
v 0.600000 0.669757 -0.006281
v 0.000000 0.038128 -0.006281
v 0.000000 0.669757 -0.006281
v 0.600000 0.597822 -0.006281
v 0.000000 0.597822 -0.006281
v 0.418150 0.038128 -0.006281
v 0.418150 0.669757 -0.006281
v 0.418150 0.597822 -0.006281
v 0.351371 0.669757 -0.006281
v 0.351371 0.597822 -0.006281
v 0.351371 0.038128 -0.006281
v -0.600000 0.038128 -0.006281
v -0.600000 0.669757 -0.006281
v -0.600000 0.597822 -0.006281
v -0.418150 0.038128 -0.006281
v -0.418150 0.669757 -0.006281
v -0.418150 0.597822 -0.006281
v -0.351371 0.669757 -0.006281
v -0.351371 0.597822 -0.006281
v -0.351371 0.038128 -0.006281
v 0.351371 0.597822 0.173719
v 0.000000 0.555580 0.080056
v 0.000000 0.038128 0.173719
v 0.351371 0.038128 0.173719
v -0.351371 0.597822 0.173719
v -0.351371 0.038128 0.173719
v 0.000000 0.555580 0.125677
v 0.000000 0.080370 0.125677
v 0.351371 0.597822 0.125677
v 0.000000 0.597822 0.125677
v 0.351371 0.038128 0.125677
v 0.418150 0.038128 0.125677
v 0.418150 0.597822 0.125677
v 0.000000 0.038128 0.125677
v -0.351371 0.597822 0.125677
v -0.351371 0.038128 0.125677
v -0.418150 0.038128 0.125677
v -0.418150 0.597822 0.125677
v 0.331770 0.555580 0.125677
v 0.331770 0.080370 0.125677
v -0.331770 0.555580 0.125677
v -0.331770 0.080370 0.125677
v 0.351371 0.669757 0.207735
v 0.000000 0.669757 0.207735
v 0.600000 0.669757 0.207735
v 0.600000 0.597822 0.207735
v 0.000000 0.597822 0.207735
v 0.351371 0.597822 0.207735
v 0.418150 0.669757 0.207735
v 0.418150 0.597822 0.207735
v -0.351371 0.669757 0.207735
v -0.600000 0.669757 0.207735
v -0.600000 0.597822 0.207735
v -0.351371 0.597822 0.207735
v -0.418150 0.669757 0.207735
v -0.418150 0.597822 0.207735
v 0.418150 0.000001 0.173719
v 0.600000 0.000001 0.173719
v 0.000000 0.000001 0.083719
v 0.000000 0.000001 0.173719
v 0.600000 0.000001 0.083719
v 0.351371 0.000001 0.083719
v 0.351371 0.000001 0.173719
v 0.418150 0.000001 0.083719
v -0.418150 0.000001 0.173719
v -0.600000 0.000001 0.173719
v -0.600000 0.000001 0.083719
v -0.351371 0.000001 0.083719
v -0.351371 0.000001 0.173719
v -0.418150 0.000001 0.083719
v 0.418150 0.000001 -0.006281
v 0.600000 0.000001 -0.006281
v 0.000000 0.000001 -0.006281
v 0.351371 0.000001 -0.006281
v -0.418150 0.000001 -0.006281
v -0.600000 0.000001 -0.006281
v -0.351371 0.000001 -0.006281
vn 1.0000 -0.0000 -0.0000
vn -0.0000 -0.0000 -1.0000
vn -0.0000 1.0000 -0.0000
vn -0.0000 -0.0000 1.0000
vn -0.0000 -1.0000 -0.0000
vn -1.0000 -0.0000 -0.0000
vt 0.034822 0.814085
vt 0.034822 0.799551
vt 0.053004 0.799551
vt 0.053004 0.814085
vt 0.144249 0.762812
vt 0.144249 0.749321
vt 0.151951 0.749321
vt 0.151951 0.762812
vt 0.393795 0.776304
vt 0.393795 0.847292
vt 0.375612 0.847292
vt 0.375612 0.776304
vt 0.375612 0.918281
vt 0.368739 0.918281
vt 0.368739 0.847292
vt 0.034822 0.927162
vt 0.053004 0.927162
vt 0.265028 0.799551
vt 0.151951 0.799551
vt 0.265028 0.762812
vt 0.455216 0.726072
vt 0.455216 0.762812
vt 0.448344 0.762812
vt 0.448344 0.726072
vt 0.393795 0.726072
vt 0.393795 0.762812
vt 0.375612 0.762812
vt 0.375612 0.726072
vt 0.265028 0.607343
vt 0.265028 0.593852
vt 0.272731 0.593852
vt 0.272731 0.607343
vt 0.455216 0.776304
vt 0.464922 0.762812
vt 0.464922 0.776304
vt 0.385808 0.570603
vt 0.385808 0.557112
vt 0.395514 0.557112
vt 0.395514 0.570603
vt 0.265028 0.749321
vt 0.272731 0.749321
vt 0.272731 0.762812
vt 0.455216 0.931772
vt 0.455216 0.968512
vt 0.448344 0.968512
vt 0.448344 0.931772
vt 0.084932 0.814085
vt 0.066749 0.814085
vt 0.066749 0.799551
vt 0.084932 0.799551
vt 0.066749 0.927162
vt 0.084932 0.927162
vt 0.084932 0.934865
vt 0.066749 0.934865
vt 0.393795 0.918281
vt 0.448344 0.776304
vt 0.265028 0.557112
vt 0.151951 0.593852
vt 0.151951 0.557112
vt 0.059877 0.814085
vt 0.059877 0.799551
vt 0.393795 0.968512
vt 0.375612 0.968512
vt 0.375612 0.931772
vt 0.393795 0.931772
vt 0.272731 0.799551
vt 0.385808 0.726072
vt 0.385808 0.712581
vt 0.395514 0.712581
vt 0.395514 0.726072
vt 0.385808 0.641592
vt 0.395514 0.641592
vt 0.053004 0.934865
vt 0.034822 0.934865
vt 0.455216 0.918281
vt 0.448344 0.918281
vt 0.016638 0.814085
vt 0.016638 0.799551
vt 0.265028 0.678332
vt 0.272731 0.678332
vt 0.411978 0.776304
vt 0.411978 0.847292
vt 0.031172 0.607343
vt 0.031172 0.678332
vt 0.016638 0.678332
vt 0.016638 0.607343
vt 0.016638 0.927162
vt 0.144249 0.557112
vt 0.144249 0.593852
vt 0.031172 0.593852
vt 0.031172 0.557112
vt 0.016638 0.593852
vt 0.016638 0.557112
vt 0.411978 0.726072
vt 0.411978 0.762812
vt 0.144249 0.607343
vt 0.144249 0.678332
vt 0.103115 0.799551
vt 0.103115 0.814085
vt 0.272731 0.557112
vt 0.411978 0.918281
vt 0.031172 0.749321
vt 0.016638 0.749321
vt 0.103115 0.927162
vt 0.144249 0.799551
vt 0.031172 0.799551
vt 0.031172 0.762812
vt 0.016638 0.762812
vt 0.411978 0.931772
vt 0.411978 0.968512
vt 0.103115 0.934865
vt 0.016638 0.934865
vt 0.121549 0.912628
vt 0.121549 0.799551
vt 0.131255 0.799551
vt 0.131255 0.912628
vt 0.455216 0.847292
vt 0.464922 0.847292
vt 0.464922 0.918281
vt 0.140961 0.799551
vt 0.140961 0.912628
vt 0.464922 0.931772
vt 0.140961 0.895560
vt 0.150178 0.799551
vt 0.150178 0.895560
vt 0.272731 0.726072
vt 0.272731 0.712581
vt 0.103115 0.933609
vt 0.103115 0.866580
vt 0.112332 0.866580
vt 0.112332 0.933609
vt 0.272731 0.570603
vt 0.281266 0.641592
vt 0.281266 0.708620
vt 0.272731 0.641592
vt 0.377274 0.708620
vt 0.377274 0.641592
vt 0.281266 0.574564
vt 0.377274 0.574564
vt 0.121549 0.866580
vt 0.112332 0.866580
vt 0.112332 0.799551
vt 0.159395 0.799551
vt 0.159395 0.895560
vt 0.121549 0.933609
vt 0.479455 0.918281
vt 0.479455 0.847292
vt 0.479455 0.968512
vt 0.464922 0.968512
vt 0.479455 0.931772
vt 0.479455 0.776304
vt 0.479455 0.726072
vt 0.479455 0.762812
vt 0.464922 0.726072
vt 0.448344 0.847292
vt 0.368739 0.776304
vt 0.368739 0.762812
vt 0.368739 0.726072
vt 0.368739 0.968512
vt 0.368739 0.931772
vt 0.430161 0.931772
vt 0.430161 0.968512
vt 0.430161 0.918281
vt 0.430161 0.847292
vt 0.430161 0.762812
vt 0.430161 0.726072
vt 0.430161 0.776304
vt 0.151951 0.607343
vt 0.151951 0.678332
vt 0.272731 0.860129
vt 0.272731 0.793101
vt 0.368739 0.793101
vt 0.368739 0.860129
s 1
f 10/1/1 6/2/1 2/3/1 8/4/1
f 48/5/2 53/6/2 110/7/2 108/8/2
f 18/9/3 7/10/3 4/11/3 15/12/3
f 4/11/3 29/13/3 84/14/3 77/15/3
f 5/16/1 10/1/1 8/4/1 1/17/1
f 1/18/4 8/19/4 14/8/4 11/20/4
f 23/21/5 28/22/5 89/23/5 86/24/5
f 6/25/3 13/26/3 12/27/3 2/28/3
f 59/29/4 25/30/4 98/31/4 102/32/4
f 58/33/5 28/22/5 71/34/5 68/35/5
f 57/36/3 11/37/3 65/38/3 64/39/3
f 11/20/4 57/40/4 96/41/4 90/42/4
f 14/43/5 8/44/5 79/45/5 83/46/5
f 13/26/3 18/9/3 15/12/3 12/27/3
f 24/47/6 23/48/6 20/49/6 22/50/6
f 19/51/6 21/52/6 100/53/6 99/54/6
f 32/55/3 29/13/3 4/11/3 7/10/3
f 28/22/5 58/33/5 87/56/5 89/23/5
f 21/52/6 19/51/6 23/48/6 24/47/6
f 19/57/4 25/30/4 28/58/4 23/59/4
f 20/49/6 23/48/6 86/60/6 85/61/6
f 22/62/3 20/63/3 26/64/3 27/65/3
f 1/18/4 11/20/4 90/42/4 91/66/4
f 25/67/3 59/68/3 69/69/3 70/70/3
f 56/71/3 57/36/3 64/39/3 67/72/3
f 5/16/1 1/17/1 91/73/1 94/74/1
f 54/75/5 14/43/5 83/46/5 81/76/5
f 27/65/3 26/64/3 29/13/3 32/55/3
f 10/1/1 37/77/1 34/78/1 6/2/1
f 56/79/4 59/29/4 102/32/4 93/80/4
f 18/9/3 42/81/3 36/82/3 7/10/3
f 43/83/2 38/84/2 36/85/2 42/86/2
f 5/16/1 33/87/1 37/77/1 10/1/1
f 33/88/2 39/89/2 41/90/2 37/91/2
f 37/91/2 41/90/2 40/92/2 34/93/2
f 6/25/3 34/94/3 40/95/3 13/26/3
f 39/89/2 33/88/2 105/59/2 104/58/2
f 43/83/2 44/96/2 35/97/2 38/84/2
f 41/90/2 39/89/2 44/96/2 43/83/2
f 57/40/4 56/79/4 93/80/4 96/41/4
f 41/90/2 43/83/2 42/86/2 40/92/2
f 13/26/3 40/95/3 42/81/3 18/9/3
f 24/47/6 22/50/6 46/98/6 47/99/6
f 25/30/4 19/57/4 99/100/4 98/31/4
f 32/55/3 7/10/3 36/82/3 51/101/3
f 52/102/2 51/103/2 36/85/2 38/84/2
f 21/52/6 24/47/6 47/99/6 45/104/6
f 45/105/2 47/106/2 50/107/2 48/5/2
f 47/106/2 46/78/2 49/108/2 50/107/2
f 22/62/3 27/65/3 49/109/3 46/110/3
f 21/52/6 45/104/6 109/111/6 100/53/6
f 52/102/2 38/84/2 35/97/2 53/6/2
f 50/107/2 52/102/2 53/6/2 48/5/2
f 33/87/1 5/16/1 94/74/1 105/112/1
f 50/107/2 49/108/2 51/103/2 52/102/2
f 27/65/3 32/55/3 51/101/3 49/109/3
f 11/113/6 14/114/6 66/115/6 65/116/6
f 54/75/5 9/117/5 63/118/5 62/119/5
f 59/68/3 56/71/3 67/72/3 69/69/3
f 28/120/1 25/121/1 70/116/1 71/115/1
f 9/117/5 58/33/5 68/35/5 63/118/5
f 14/43/5 54/75/5 62/119/5 66/122/5
f 73/123/6 72/120/6 30/124/6 17/125/6
f 66/126/4 62/127/4 64/68/4 65/67/4
f 75/128/3 61/129/3 31/130/3 3/131/3
f 71/100/4 70/37/4 69/36/4 68/132/4
f 60/133/4 72/134/4 62/127/4 63/135/4
f 73/136/4 61/137/4 67/71/4 64/68/4
f 72/134/4 73/136/4 64/68/4 62/127/4
f 74/138/4 60/133/4 63/135/4 68/132/4
f 61/137/4 75/139/4 69/36/4 67/71/4
f 75/139/4 74/138/4 68/132/4 69/36/4
f 16/114/5 55/140/5 60/141/5 74/142/5
f 74/143/1 75/144/1 3/125/1 16/124/1
f 55/140/5 30/145/5 72/131/5 60/141/5
f 61/129/3 73/98/3 17/142/3 31/130/3
f 81/146/4 76/119/4 77/118/4 80/147/4
f 79/148/4 78/149/4 82/122/4 83/150/4
f 83/150/4 82/122/4 76/119/4 81/146/4
f 87/151/4 80/147/4 77/118/4 84/35/4
f 86/152/4 89/153/4 88/34/4 85/154/4
f 89/153/4 87/151/4 84/35/4 88/34/4
f 9/117/5 54/75/5 81/76/5 80/155/5
f 58/33/5 9/117/5 80/155/5 87/56/5
f 15/12/3 4/11/3 77/15/3 76/156/3
f 2/28/3 12/27/3 82/157/3 78/158/3
f 26/64/3 20/63/3 85/159/3 88/160/3
f 12/27/3 15/12/3 76/156/3 82/157/3
f 29/13/3 26/64/3 88/160/3 84/14/3
f 8/4/1 2/3/1 78/61/1 79/60/1
f 97/161/5 94/162/5 91/110/5 90/109/5
f 95/163/5 97/161/5 90/109/5 96/101/5
f 92/164/5 95/163/5 96/101/5 93/82/5
f 103/165/5 98/95/5 99/94/5 100/166/5
f 101/167/5 102/81/5 98/95/5 103/165/5
f 92/164/5 93/82/5 102/81/5 101/167/5
f 97/161/5 104/46/5 105/45/5 94/162/5
f 95/163/5 107/76/5 104/46/5 97/161/5
f 92/164/5 106/155/5 107/76/5 95/163/5
f 103/165/5 100/166/5 109/24/5 108/23/5
f 101/167/5 103/165/5 108/23/5 110/56/5
f 92/164/5 101/167/5 110/56/5 106/155/5
f 44/96/2 39/89/2 104/58/2 107/168/2
f 45/105/2 48/5/2 108/8/2 109/19/2
f 53/6/2 35/97/2 106/169/2 110/7/2
f 35/97/2 44/96/2 107/168/2 106/169/2
f 30/170/4 55/171/4 31/172/4 17/173/4
f 55/171/4 16/126/4 3/158/4 31/172/4
