# Blender 4.5.3 LTS
# www.blender.org
mtllib Rooftop Corner Segment.mtl
o Rooftop_Wall_Segment.106
v 0.600000 0.038128 0.173719
v 0.600000 0.669757 0.173719
v -0.331770 0.080370 0.080056
v 0.000000 0.669757 0.173719
v 0.600000 0.038128 0.083719
v 0.600000 0.669757 0.083719
v 0.000000 0.669757 0.083719
v 0.600000 0.597822 0.173719
v 0.000000 0.597822 0.173719
v 0.600000 0.597822 0.083719
v 0.418150 0.038128 0.173719
v 0.418150 0.669757 0.173719
v 0.418150 0.669757 0.083719
v 0.418150 0.597822 0.173719
v 0.351371 0.669757 0.173719
v -0.331770 0.555580 0.080056
v 0.331770 0.080370 0.080056
v 0.351371 0.669757 0.083719
v -0.600000 0.038128 0.173719
v -0.600000 0.669757 0.173719
v -0.600000 0.038128 0.083719
v -0.600000 0.669757 0.083719
v -0.600000 0.597822 0.173719
v -0.600000 0.597822 0.083719
v -0.418150 0.038128 0.173719
v -0.418150 0.669757 0.173719
v -0.418150 0.669757 0.083719
v -0.418150 0.597822 0.173719
v -0.351371 0.669757 0.173719
v 0.331770 0.555580 0.080056
v 0.000000 0.080370 0.080056
v -0.351371 0.669757 0.083719
v 0.600000 0.038128 -0.006281
v 0.600000 0.669757 -0.006281
v 0.000000 0.038128 -0.006281
v 0.000000 0.669757 -0.006281
v 0.600000 0.597822 -0.006281
v 0.000000 0.597822 -0.006281
v 0.418150 0.038128 -0.006281
v 0.418150 0.669757 -0.006281
v 0.418150 0.597822 -0.006281
v 0.351371 0.669757 -0.006281
v 0.351371 0.597822 -0.006281
v 0.351371 0.038128 -0.006281
v -0.600000 0.038128 -0.006281
v -0.600000 0.669757 -0.006281
v -0.600000 0.597822 -0.006281
v -0.418150 0.038128 -0.006281
v -0.418150 0.669757 -0.006281
v -0.418150 0.597822 -0.006281
v -0.351371 0.669757 -0.006281
v -0.351371 0.597822 -0.006281
v -0.351371 0.038128 -0.006281
v 0.351371 0.597822 0.173719
v 0.000000 0.555580 0.080056
v 0.000000 0.038128 0.173719
v 0.351371 0.038128 0.173719
v -0.351371 0.597822 0.173719
v -0.351371 0.038128 0.173719
v 0.000000 0.555580 0.125677
v 0.000000 0.080370 0.125677
v 0.351371 0.597822 0.125677
v 0.000000 0.597822 0.125677
v 0.351371 0.038128 0.125677
v 0.418150 0.038128 0.125677
v 0.418150 0.597822 0.125677
v 0.000000 0.038128 0.125677
v -0.351371 0.597822 0.125677
v -0.351371 0.038128 0.125677
v -0.418150 0.038128 0.125677
v -0.418150 0.597822 0.125677
v 0.331770 0.555580 0.125677
v 0.331770 0.080370 0.125677
v -0.331770 0.555580 0.125677
v -0.331770 0.080370 0.125677
v 0.351371 0.669757 0.207735
v 0.000000 0.669757 0.207735
v 0.600000 0.669757 0.207735
v 0.600000 0.597822 0.207735
v 0.000000 0.597822 0.207735
v 0.351371 0.597822 0.207735
v 0.418150 0.669757 0.207735
v 0.418150 0.597822 0.207735
v -0.351371 0.669757 0.207735
v -0.600000 0.669757 0.207735
v -0.600000 0.597822 0.207735
v -0.351371 0.597822 0.207735
v -0.418150 0.669757 0.207735
v -0.418150 0.597822 0.207735
v 0.418150 0.000001 0.173719
v 0.600000 0.000001 0.173719
v 0.000000 0.000001 0.083719
v 0.000000 0.000001 0.173719
v 0.600000 0.000001 0.083719
v 0.351371 0.000001 0.083719
v 0.351371 0.000001 0.173719
v 0.418150 0.000001 0.083719
v -0.418150 0.000001 0.173719
v -0.600000 0.000001 0.173719
v -0.600000 0.000001 0.083719
v -0.351371 0.000001 0.083719
v -0.351371 0.000001 0.173719
v -0.418150 0.000001 0.083719
v 0.418150 0.000001 -0.006281
v 0.600000 0.000001 -0.006281
v 0.000000 0.000001 -0.006281
v 0.351371 0.000001 -0.006281
v -0.418150 0.000001 -0.006281
v -0.600000 0.000001 -0.006281
v -0.351371 0.000001 -0.006281
vn 1.0000 -0.0000 -0.0000
vn -0.0000 -0.0000 -1.0000
vn -0.0000 1.0000 -0.0000
vn -0.0000 -0.0000 1.0000
vn -0.0000 -1.0000 -0.0000
vn -1.0000 -0.0000 -0.0000
vt 0.039288 0.555237
vt 0.039288 0.523835
vt 0.078575 0.523835
vt 0.078575 0.555237
vt 0.275725 0.444453
vt 0.275725 0.415302
vt 0.292368 0.415302
vt 0.292368 0.444453
vt 0.814915 0.473604
vt 0.814915 0.626988
vt 0.775627 0.626988
vt 0.775627 0.473604
vt 0.775627 0.780371
vt 0.760778 0.780371
vt 0.760778 0.626988
vt 0.039288 0.799560
vt 0.078575 0.799560
vt 0.536691 0.523835
vt 0.292368 0.523835
vt 0.292368 0.444453
vt 0.536691 0.444453
vt 0.947626 0.365070
vt 0.947626 0.444453
vt 0.932778 0.444453
vt 0.932778 0.365070
vt 0.814915 0.365070
vt 0.814915 0.444453
vt 0.775627 0.444453
vt 0.775627 0.365070
vt 0.536691 0.108534
vt 0.536691 0.079383
vt 0.553335 0.079383
vt 0.553335 0.108534
vt 0.947626 0.473604
vt 0.968598 0.444453
vt 0.968598 0.473604
vt 0.797658 0.029151
vt 0.797658 -0.000000
vt 0.818630 -0.000000
vt 0.818630 0.029151
vt 0.536691 0.415302
vt 0.553335 0.415302
vt 0.553335 0.444453
vt 0.947626 0.809522
vt 0.947626 0.888905
vt 0.932778 0.888905
vt 0.932778 0.809522
vt 0.147561 0.555237
vt 0.108273 0.555237
vt 0.108273 0.523835
vt 0.147561 0.523835
vt 0.108273 0.799560
vt 0.147561 0.799560
vt 0.147561 0.816204
vt 0.108273 0.816204
vt 0.814915 0.780371
vt 0.932778 0.473604
vt 0.536691 0.000000
vt 0.292368 0.079383
vt 0.292368 -0.000000
vt 0.093424 0.555237
vt 0.093424 0.523835
vt 0.814915 0.888905
vt 0.775627 0.888905
vt 0.775627 0.809522
vt 0.814915 0.809522
vt 0.553335 0.523835
vt 0.797658 0.365070
vt 0.797658 0.335919
vt 0.818629 0.335919
vt 0.818629 0.365070
vt 0.797658 0.182535
vt 0.818629 0.182535
vt 0.078575 0.816204
vt 0.039288 0.816204
vt 0.947626 0.780371
vt 0.932778 0.780371
vt 0.000000 0.555237
vt 0.000000 0.523835
vt 0.536691 0.261918
vt 0.553335 0.261918
vt 0.854202 0.473604
vt 0.854202 0.626988
vt 0.031402 0.108534
vt 0.031402 0.261918
vt 0.000000 0.261918
vt 0.000000 0.108534
vt 0.000000 0.799560
vt 0.275725 0.000000
vt 0.275725 0.079383
vt 0.031402 0.079383
vt 0.031402 0.000000
vt 0.000000 0.079383
vt 0.000000 0.000000
vt 0.854202 0.365070
vt 0.854202 0.444453
vt 0.292368 0.000000
vt 0.292368 0.079383
vt 0.275725 0.108534
vt 0.275725 0.261918
vt 0.186848 0.523835
vt 0.186848 0.555237
vt 0.553335 0.000000
vt 0.854202 0.780371
vt 0.031402 0.415302
vt 0.000000 0.415302
vt 0.186848 0.799560
vt 0.275725 0.523835
vt 0.031402 0.523835
vt 0.031402 0.444453
vt 0.000000 0.523835
vt 0.000000 0.444453
vt 0.854202 0.809522
vt 0.854202 0.888905
vt 0.186848 0.816204
vt 0.000000 0.816204
vt 0.226679 0.768158
vt 0.226679 0.523835
vt 0.247650 0.523835
vt 0.247650 0.768158
vt 0.947626 0.626988
vt 0.968598 0.626988
vt 0.968598 0.780371
vt 0.268622 0.523835
vt 0.268622 0.768158
vt 0.247650 0.768158
vt 0.247650 0.523835
vt 0.968598 0.809522
vt 0.268622 0.731279
vt 0.268622 0.523835
vt 0.288537 0.523835
vt 0.288537 0.731279
vt 0.553335 0.365070
vt 0.553335 0.335919
vt 0.797658 0.335919
vt 0.797658 0.365070
vt 0.186848 0.813490
vt 0.186848 0.668663
vt 0.206763 0.668663
vt 0.206763 0.813490
vt 0.553335 0.000000
vt 0.797658 0.000000
vt 0.797658 0.029151
vt 0.553335 0.029151
vt 0.571775 0.182535
vt 0.571775 0.327362
vt 0.553335 0.182535
vt 0.779218 0.327362
vt 0.779218 0.182535
vt 0.797658 0.182535
vt 0.571775 0.037708
vt 0.779218 0.037708
vt 0.226679 0.668663
vt 0.206764 0.668663
vt 0.206764 0.523835
vt 0.308452 0.523835
vt 0.308452 0.731279
vt 0.226679 0.813490
vt 0.206763 0.813490
vt 0.186848 0.523835
vt 0.206764 0.523835
vt 1.000000 0.780371
vt 0.968598 0.780371
vt 0.968598 0.626988
vt 1.000000 0.626988
vt 1.000000 0.888905
vt 0.968598 0.888905
vt 1.000000 0.809522
vt 1.000000 0.473604
vt 0.968598 0.473604
vt 1.000000 0.365070
vt 1.000000 0.444453
vt 0.968598 0.444453
vt 0.968598 0.365070
vt 0.932778 0.626988
vt 0.760778 0.473604
vt 0.760778 0.444453
vt 0.760778 0.365070
vt 0.760778 0.888905
vt 0.760778 0.809522
vt 0.893490 0.809522
vt 0.893490 0.888905
vt 0.854202 0.888905
vt 0.854202 0.809522
vt 0.893490 0.780371
vt 0.854202 0.780371
vt 0.893490 0.626988
vt 0.893490 0.444453
vt 0.893490 0.365070
vt 0.893490 0.473604
vt 0.932778 0.626988
vt 0.932778 0.365070
vt 0.932778 0.444453
vt 0.932778 0.473604
vt 0.292368 0.108534
vt 0.292368 0.261918
vt 0.553335 0.654724
vt 0.553335 0.509897
vt 0.760778 0.509897
vt 0.760778 0.654724
vt 0.553335 0.365070
vt 0.760778 0.365070
s 1
f 10/1/1 6/2/1 2/3/1 8/4/1
f 48/5/2 53/6/2 110/7/2 108/8/2
f 18/9/3 7/10/3 4/11/3 15/12/3
f 4/11/3 29/13/3 84/14/3 77/15/3
f 5/16/1 10/1/1 8/4/1 1/17/1
f 1/18/4 8/19/4 14/20/4 11/21/4
f 23/22/5 28/23/5 89/24/5 86/25/5
f 6/26/3 13/27/3 12/28/3 2/29/3
f 59/30/4 25/31/4 98/32/4 102/33/4
f 58/34/5 28/23/5 71/35/5 68/36/5
f 57/37/3 11/38/3 65/39/3 64/40/3
f 11/21/4 57/41/4 96/42/4 90/43/4
f 14/44/5 8/45/5 79/46/5 83/47/5
f 13/27/3 18/9/3 15/12/3 12/28/3
f 24/48/6 23/49/6 20/50/6 22/51/6
f 19/52/6 21/53/6 100/54/6 99/55/6
f 32/56/3 29/13/3 4/11/3 7/10/3
f 28/23/5 58/34/5 87/57/5 89/24/5
f 21/53/6 19/52/6 23/49/6 24/48/6
f 19/58/4 25/31/4 28/59/4 23/60/4
f 20/50/6 23/49/6 86/61/6 85/62/6
f 22/63/3 20/64/3 26/65/3 27/66/3
f 1/18/4 11/21/4 90/43/4 91/67/4
f 25/68/3 59/69/3 69/70/3 70/71/3
f 56/72/3 57/37/3 64/40/3 67/73/3
f 5/16/1 1/17/1 91/74/1 94/75/1
f 54/76/5 14/44/5 83/47/5 81/77/5
f 27/66/3 26/65/3 29/13/3 32/56/3
f 10/1/1 37/78/1 34/79/1 6/2/1
f 56/80/4 59/30/4 102/33/4 93/81/4
f 18/9/3 42/82/3 36/83/3 7/10/3
f 43/84/2 38/85/2 36/86/2 42/87/2
f 5/16/1 33/88/1 37/78/1 10/1/1
f 33/89/2 39/90/2 41/91/2 37/92/2
f 37/92/2 41/91/2 40/93/2 34/94/2
f 6/26/3 34/95/3 40/96/3 13/27/3
f 39/90/2 33/89/2 105/97/2 104/98/2
f 43/84/2 44/99/2 35/100/2 38/85/2
f 41/91/2 39/90/2 44/99/2 43/84/2
f 57/41/4 56/80/4 93/81/4 96/42/4
f 41/91/2 43/84/2 42/87/2 40/93/2
f 13/27/3 40/96/3 42/82/3 18/9/3
f 24/48/6 22/51/6 46/101/6 47/102/6
f 25/31/4 19/58/4 99/103/4 98/32/4
f 32/56/3 7/10/3 36/83/3 51/104/3
f 52/105/2 51/106/2 36/86/2 38/85/2
f 21/53/6 24/48/6 47/102/6 45/107/6
f 45/108/2 47/109/2 50/110/2 48/5/2
f 47/109/2 46/111/2 49/112/2 50/110/2
f 22/63/3 27/66/3 49/113/3 46/114/3
f 21/53/6 45/107/6 109/115/6 100/54/6
f 52/105/2 38/85/2 35/100/2 53/6/2
f 50/110/2 52/105/2 53/6/2 48/5/2
f 33/88/1 5/16/1 94/75/1 105/116/1
f 50/110/2 49/112/2 51/106/2 52/105/2
f 27/66/3 32/56/3 51/104/3 49/113/3
f 11/117/6 14/118/6 66/119/6 65/120/6
f 54/76/5 9/121/5 63/122/5 62/123/5
f 59/69/3 56/72/3 67/73/3 69/70/3
f 28/124/1 25/125/1 70/126/1 71/127/1
f 9/121/5 58/34/5 68/36/5 63/122/5
f 14/44/5 54/76/5 62/123/5 66/128/5
f 73/129/6 72/130/6 30/131/6 17/132/6
f 66/133/4 62/134/4 64/135/4 65/136/4
f 75/137/3 61/138/3 31/139/3 3/140/3
f 71/141/4 70/142/4 69/143/4 68/144/4
f 60/145/4 72/146/4 62/134/4 63/147/4
f 73/148/4 61/149/4 67/150/4 64/135/4
f 72/146/4 73/148/4 64/135/4 62/134/4
f 74/151/4 60/145/4 63/147/4 68/144/4
f 61/149/4 75/152/4 69/143/4 67/150/4
f 75/152/4 74/151/4 68/144/4 69/143/4
f 16/118/5 55/153/5 60/154/5 74/155/5
f 74/156/1 75/157/1 3/132/1 16/131/1
f 55/153/5 30/158/5 72/159/5 60/154/5
f 61/138/3 73/160/3 17/161/3 31/139/3
f 81/162/4 76/163/4 77/164/4 80/165/4
f 79/166/4 78/167/4 82/128/4 83/168/4
f 83/168/4 82/128/4 76/163/4 81/162/4
f 87/169/4 80/165/4 77/164/4 84/170/4
f 86/171/4 89/172/4 88/173/4 85/174/4
f 89/172/4 87/169/4 84/170/4 88/173/4
f 9/121/5 54/76/5 81/77/5 80/175/5
f 58/34/5 9/121/5 80/175/5 87/57/5
f 15/12/3 4/11/3 77/15/3 76/176/3
f 2/29/3 12/28/3 82/177/3 78/178/3
f 26/65/3 20/64/3 85/179/3 88/180/3
f 12/28/3 15/12/3 76/176/3 82/177/3
f 29/13/3 26/65/3 88/180/3 84/14/3
f 8/4/1 2/3/1 78/62/1 79/61/1
f 97/181/5 94/182/5 91/183/5 90/184/5
f 95/185/5 97/181/5 90/184/5 96/186/5
f 92/187/5 95/185/5 96/186/5 93/83/5
f 103/188/5 98/96/5 99/95/5 100/189/5
f 101/190/5 102/82/5 98/96/5 103/188/5
f 92/187/5 93/83/5 102/82/5 101/190/5
f 97/181/5 104/47/5 105/46/5 94/182/5
f 95/185/5 107/77/5 104/47/5 97/181/5
f 92/187/5 106/191/5 107/77/5 95/185/5
f 103/188/5 100/189/5 109/192/5 108/193/5
f 101/190/5 103/188/5 108/193/5 110/194/5
f 92/187/5 101/190/5 110/194/5 106/191/5
f 44/99/2 39/90/2 104/98/2 107/195/2
f 45/108/2 48/5/2 108/8/2 109/19/2
f 53/6/2 35/100/2 106/196/2 110/7/2
f 35/100/2 44/99/2 107/195/2 106/196/2
f 30/197/4 55/198/4 31/199/4 17/200/4
f 55/198/4 16/201/4 3/202/4 31/199/4
