# Blender 5.0.1
# www.blender.org
mtllib axisroof.mtl
o Cube.001
v 0.000000 -1.000000 0.000000
v 0.000000 1.000000 -0.000000
v 1.000000 -1.000000 0.000000
v 1.000000 1.000000 -0.000000
v 0.000000 -1.000000 1.000000
v 0.000000 1.000000 1.000000
vn -0.0000 -0.0000 -1.0000
vn -1.0000 -0.0000 -0.0000
vn -0.0000 -1.0000 -0.0000
vn -0.0000 1.0000 -0.0000
vn 0.7071 -0.0000 0.7071
vt 0.375000 0.000000
vt 0.625000 0.000000
vt 0.625000 0.250000
vt 0.375000 0.250000
vt 0.375000 0.750000
vt 0.625000 0.750000
vt 0.625000 1.000000
vt 0.375000 1.000000
vt 0.125000 0.500000
vt 0.125000 0.750000
vt 0.875000 0.500000
vt 0.875000 0.750000
s 1
f 1/1/1 2/2/1 4/3/1 3/4/1
f 5/5/2 6/6/2 2/7/2 1/8/2
f 3/9/3 5/5/3 1/10/3
f 4/11/4 2/12/4 6/6/4
f 4/3/5 6/6/5 5/5/5 3/4/5
o Cube.002
v 0.000000 1.487113 -0.000000
v 0.000000 1.487113 0.000000
v 0.000000 1.532679 -0.000000
v 0.000000 1.532679 0.000000
v 1.000000 1.487113 -0.000000
v 1.000000 1.532679 -0.000000
v 1.000000 2.028117 0.000000
v 1.000000 2.054919 -0.000000
v 1.000000 2.073683 0.000000
v 1.000000 2.073683 0.000000
v 0.000000 1.487113 1.000000
v 0.000000 1.487113 1.000000
v 0.000000 1.532679 1.000000
v 0.000000 1.532679 1.000000
v 0.000000 2.028117 1.000000
v 0.000000 2.028117 1.000000
v 0.000000 2.073683 1.000000
v 0.000000 2.073683 1.000000
vn -0.0000 -0.0000 -1.0000
vn -0.0000 -0.0000 1.0000
vn -1.0000 -0.0000 -0.0000
vn -0.0000 -0.8795 0.4758
vn -0.0000 0.8795 -0.4758
vn 0.4758 -0.8795 -0.0000
vn -0.4758 0.8795 -0.0000
vn 0.7071 -0.0000 0.7071
vn 0.4779 -0.0000 0.8784
vn 0.2757 -0.0000 0.9613
vt 0.375000 0.250000
vt 0.375000 0.000000
vt 0.625000 0.000000
vt 0.625000 0.250000
vt 0.625000 0.750000
vt 0.375000 0.750000
vt 0.625000 1.000000
vt 0.375000 1.000000
vt 0.125000 0.750000
vt 0.125000 0.500000
vt 0.875000 0.500000
vt 0.875000 0.750000
vt 0.625000 0.250000
vt 0.625000 0.500000
vt 0.522052 0.500000
vt 0.375000 0.500000
vt 0.125000 0.500000
vt 0.375000 0.500000
vt 0.625000 0.500000
vt 0.470691 0.250000
vt 0.538316 0.750000
vt 0.541667 0.750000
vt 0.544012 0.750000
vt 0.476387 0.250000
vt 0.538316 0.250000
vt 0.470691 0.750000
vt 0.476387 0.750000
vt 0.544012 0.250000
s 0
usemtl 
f 11/13/6 7/14/6 9/15/6 12/16/6
f 23/17/7 21/18/7 22/18/7 24/17/7
f 9/19/8 7/20/8 21/18/8 23/17/8
f 21/18/9 7/21/9 11/22/9 22/18/9
f 24/17/10 12/23/10 9/24/10 23/17/10
f 10/25/8 8/13/8 17/14/8 19/15/8
f 8/13/6 10/25/6 15/26/6 14/27/6 13/28/6
f 19/19/7 17/20/7 18/20/7 20/19/7
f 8/29/11 13/30/11 18/21/11 17/21/11
f 10/23/12 19/24/12 20/24/12 16/31/12 15/31/12
s 1
f 18/32/13 13/33/13 14/34/13 16/35/14 20/36/13
f 22/37/13 11/38/13 12/39/13 24/40/13
f 15/35/15 16/35/14 14/34/13
