# Blender 5.0.1
# www.blender.org
mtllib axisroof.mtl
o Cube
v 0.000000 0.000000 1.000000
v 0.000000 0.082504 1.000000
v 0.000000 0.000000 0.000000
v 0.000000 0.082504 -0.000000
v 0.500000 0.281564 0.500000
v 0.500000 0.364068 0.500000
v 1.000000 0.000000 0.000000
v 1.000000 0.082504 -0.000000
v 0.965317 0.102035 0.034683
v 0.534683 0.344537 0.465317
v 0.932191 0.120689 0.067809
v 0.899066 0.139343 0.100934
v 0.865940 0.157997 0.134060
v 0.832814 0.176651 0.167186
v 0.799689 0.195305 0.200311
v 0.766563 0.213959 0.233437
v 0.733437 0.232613 0.266563
v 0.700311 0.251267 0.299689
v 0.667186 0.269921 0.332814
v 0.634060 0.288575 0.365940
v 0.600934 0.307229 0.399066
v 0.567809 0.325883 0.432191
v 0.465317 0.344537 0.465317
v 0.034683 0.102035 0.034683
v 0.432191 0.325883 0.432191
v 0.399066 0.307229 0.399066
v 0.365940 0.288575 0.365940
v 0.332814 0.269921 0.332814
v 0.299689 0.251267 0.299689
v 0.266563 0.232613 0.266563
v 0.233437 0.213959 0.233437
v 0.200311 0.195305 0.200311
v 0.167186 0.176651 0.167186
v 0.134060 0.157997 0.134060
v 0.100934 0.139343 0.100934
v 0.067809 0.120689 0.067809
v 0.465317 0.344537 0.534683
v 0.034683 0.102035 0.965317
v 0.432191 0.325883 0.567809
v 0.399066 0.307229 0.600934
v 0.365940 0.288575 0.634060
v 0.332814 0.269921 0.667186
v 0.299689 0.251267 0.700311
v 0.266563 0.232613 0.733437
v 0.233437 0.213959 0.766563
v 0.200311 0.195305 0.799689
v 0.167186 0.176651 0.832814
v 0.134060 0.157997 0.865940
v 0.100934 0.139343 0.899066
v 0.067809 0.120689 0.932191
v 0.435792 0.319490 0.567809
v 0.468917 0.338144 0.534683
v 0.468917 0.338144 0.465317
v 0.435792 0.319490 0.432191
v 0.402666 0.300836 0.399066
v 0.402666 0.300836 0.600934
v 0.369540 0.282182 0.634060
v 0.369540 0.282182 0.365940
v 0.336414 0.263528 0.332814
v 0.336414 0.263528 0.667186
v 0.303289 0.244874 0.700311
v 0.303289 0.244874 0.299689
v 0.270163 0.226220 0.266563
v 0.270163 0.226220 0.733437
v 0.237037 0.207566 0.766563
v 0.237037 0.207566 0.233437
v 0.203912 0.188912 0.200311
v 0.203912 0.188912 0.799689
v 0.170786 0.170258 0.832814
v 0.170786 0.170258 0.167186
v 0.137660 0.151604 0.134060
v 0.137660 0.151604 0.865940
v 0.104534 0.132950 0.899066
v 0.104534 0.132950 0.100934
v 0.071409 0.114296 0.067809
v 0.071409 0.114296 0.932191
v 0.038283 0.095642 0.965317
v 0.038283 0.095642 0.034683
vn -1.0000 -0.0000 -0.0000
vn -0.0000 -0.0000 -1.0000
vn 0.4907 -0.8713 -0.0000
vn -0.0000 -0.8713 0.4907
vn -0.8713 -0.4907 -0.0000
vn -0.4907 0.8713 -0.0000
vn -0.5724 -0.3223 -0.7539
vn 0.8713 0.4907 -0.0000
vn -0.5724 -0.3223 0.7539
vn -0.0000 0.8713 -0.4907
vn 0.7071 -0.0000 0.7071
vt 0.375000 0.000000
vt 0.625000 0.000000
vt 0.625000 0.250000
vt 0.375000 0.250000
vt 0.625000 0.500000
vt 0.375000 0.500000
vt 0.125000 0.750000
vt 0.125000 0.500000
vt 0.250000 0.625000
vt 0.808359 0.683359
vt 0.808359 0.566641
vt 0.766952 0.641952
vt 0.766952 0.608048
vt 0.775234 0.599766
vt 0.775234 0.650234
vt 0.849766 0.724766
vt 0.841485 0.716485
vt 0.783515 0.658515
vt 0.783515 0.591485
vt 0.791796 0.583204
vt 0.791796 0.666796
vt 0.841485 0.533515
vt 0.800078 0.675078
vt 0.800078 0.574922
vt 0.816641 0.691641
vt 0.816641 0.558359
vt 0.824922 0.550078
vt 0.824922 0.699922
vt 0.758671 0.616329
vt 0.833204 0.708204
vt 0.833204 0.541796
vt 0.849766 0.525234
vt 0.858048 0.516952
vt 0.858048 0.733048
vt 0.758671 0.633671
vt 0.741329 0.616329
vt 0.733048 0.608048
vt 0.724766 0.599766
vt 0.716485 0.591485
vt 0.708204 0.583204
vt 0.699922 0.574922
vt 0.691641 0.566641
vt 0.683359 0.558359
vt 0.675078 0.550078
vt 0.666796 0.541796
vt 0.658515 0.533515
vt 0.650234 0.525234
vt 0.641952 0.516952
vt 0.633671 0.508671
vt 0.866329 0.508671
vt 0.875000 0.500000
vt 0.750000 0.625000
vt 0.875000 0.750000
vt 0.866329 0.741329
s 1
f 1/1/1 2/2/1 4/3/1 3/4/1
f 3/4/2 4/3/2 8/5/2 7/6/2
f 1/7/3 3/8/3 5/9/3
f 3/8/4 7/6/4 5/9/4
f 44/10/5 30/11/5 63/11/5 64/10/5
f 39/12/6 25/13/6 26/14/6 40/15/6
f 49/16/7 48/17/7 72/17/7 73/16/7
f 41/18/6 27/19/6 28/20/6 42/21/6
f 48/17/5 34/22/5 71/22/5 72/17/5
f 43/23/6 29/24/6 30/11/6 44/10/6
f 25/13/8 39/12/8 51/12/8 54/13/8
f 45/25/6 31/26/6 32/27/6 46/28/6
f 23/29/9 25/13/9 54/13/9 53/29/9
f 47/30/6 33/31/6 34/22/6 48/17/6
f 29/24/8 43/23/8 61/23/8 62/24/8
f 49/16/6 35/32/6 36/33/6 50/34/6
f 37/35/5 23/29/5 53/29/5 52/35/5
f 23/29/10 10/36/10 22/37/10 25/13/10
f 25/13/10 22/37/10 21/38/10 26/14/10
f 26/14/10 21/38/10 20/39/10 27/19/10
f 27/19/10 20/39/10 19/40/10 28/20/10
f 28/20/10 19/40/10 18/41/10 29/24/10
f 29/24/10 18/41/10 17/42/10 30/11/10
f 30/11/10 17/42/10 16/43/10 31/26/10
f 31/26/10 16/43/10 15/44/10 32/27/10
f 32/27/10 15/44/10 14/45/10 33/31/10
f 33/31/10 14/45/10 13/46/10 34/22/10
f 34/22/10 13/46/10 12/47/10 35/32/10
f 35/32/10 12/47/10 11/48/10 36/33/10
f 36/33/10 11/48/10 9/49/10 24/50/10
f 8/5/10 4/51/10 24/50/10 9/49/10
f 5/9/11 7/6/11 8/5/11 9/49/11 11/48/11 12/47/11 13/46/11 14/45/11 15/44/11 16/43/11 17/42/11 18/41/11 19/40/11 20/39/11 21/38/11 22/37/11 10/36/11 6/52/11
f 10/36/10 23/29/10 6/52/10
f 23/29/6 37/35/6 6/52/6
f 4/51/6 2/53/6 38/54/6 24/50/6
f 1/7/11 5/9/11 6/52/11 37/35/11 39/12/11 40/15/11 41/18/11 42/21/11 43/23/11 44/10/11 45/25/11 46/28/11 47/30/11 48/17/11 49/16/11 50/34/11 38/54/11 2/53/11
f 52/35/6 53/29/6 54/13/6 51/12/6
f 56/15/6 55/14/6 58/19/6 57/18/6
f 60/21/6 59/20/6 62/24/6 61/23/6
f 64/10/6 63/11/6 66/26/6 65/25/6
f 68/28/6 67/27/6 70/31/6 69/30/6
f 72/17/6 71/22/6 74/32/6 73/16/6
f 76/34/6 75/33/6 78/50/6 77/54/6
f 34/22/9 35/32/9 74/32/9 71/22/9
f 45/25/7 44/10/7 64/10/7 65/25/7
f 40/15/5 26/14/5 55/14/5 56/15/5
f 35/32/8 49/16/8 73/16/8 74/32/8
f 30/11/9 31/26/9 66/26/9 63/11/9
f 41/18/7 40/15/7 56/15/7 57/18/7
f 31/26/8 45/25/8 65/25/8 66/26/8
f 26/14/9 27/19/9 58/19/9 55/14/9
f 27/19/8 41/18/8 57/18/8 58/19/8
f 50/34/5 36/33/5 75/33/5 76/34/5
f 38/54/7 50/34/7 76/34/7 77/54/7
f 46/28/5 32/27/5 67/27/5 68/28/5
f 36/33/9 24/50/9 78/50/9 75/33/9
f 47/30/7 46/28/7 68/28/7 69/30/7
f 42/21/5 28/20/5 59/20/5 60/21/5
f 24/50/8 38/54/8 77/54/8 78/50/8
f 32/27/9 33/31/9 70/31/9 67/27/9
f 43/23/7 42/21/7 60/21/7 61/23/7
f 39/12/7 37/35/7 52/35/7 51/12/7
f 33/31/8 47/30/8 69/30/8 70/31/8
f 28/20/9 29/24/9 62/24/9 59/20/9
