# Blender 4.5.3 LTS
# www.blender.org
mtllib fillerwall_5.mtl
o 3rd_Floor_Center_Wall.012
v -0.488690 -0.000001 0.416873
v 0.490550 -0.000001 0.416873
v -0.599999 0.829465 0.416873
v -0.488690 -0.000001 0.482780
v 0.600000 0.829465 0.416873
v -0.488689 1.750716 0.482781
v -0.599999 1.858928 -1.648340
v -0.600000 -0.000004 -1.648340
v 0.000001 1.858931 0.416873
v 0.600000 1.858931 0.416873
v -0.599999 1.858932 0.416873
v 0.600000 -0.000001 0.416873
v 0.490550 -0.000001 0.482780
v 0.488691 1.750712 0.482781
v 0.600000 1.858928 -1.648340
v 0.600000 -0.000005 -1.648340
v 0.000001 1.750716 0.482781
v -0.600000 -0.000001 0.416873
v -0.000000 -0.000004 -1.648340
v 0.000001 1.858928 -1.648340
v -0.600000 -0.000003 -0.582780
v -0.599999 1.858930 -0.582779
v 0.600000 -0.000003 -0.582780
v 0.600000 1.858930 -0.582779
v -0.000000 -0.000003 -0.582780
v 0.000001 1.858930 -0.582779
v -0.488692 0.829466 0.482781
v -0.599999 0.829462 -1.648340
v 0.488692 0.829465 0.482781
v 0.600000 0.829462 -1.648340
v 0.000000 0.829462 -1.648340
v 0.600000 0.829463 -0.582780
v -0.599999 0.829464 -0.582780
v -0.599999 0.829466 0.482781
v -0.600000 -0.000001 0.482780
v 0.000001 1.858932 0.482781
v -0.599999 1.858932 0.482781
v 0.600000 0.829465 0.482781
v 0.600000 -0.000001 0.482780
v 0.600001 1.858932 0.482781
v 0.490550 -0.000005 -1.648340
v 0.490550 -0.000003 -0.582780
v 0.490550 0.829462 -1.648340
v -0.488689 1.750713 -1.648340
v -0.488690 -0.000004 -1.648340
v 0.000001 1.750713 -1.648340
v 0.488691 1.750712 -1.648340
v -0.488690 -0.000003 -0.582780
v -0.488690 0.829462 -1.648340
v -0.000000 -0.000001 0.416873
v -0.488692 0.829466 0.416873
v 0.488692 0.829462 0.416873
v -0.488689 1.750716 0.416873
v 0.488691 1.750712 0.416873
v 0.330821 1.858931 0.416873
v 0.332081 -0.000005 -1.648340
v 0.332081 -0.000003 -0.582780
v 0.332081 0.829462 -1.648340
v 0.330822 1.750713 -1.648340
v 0.330821 1.858930 -0.582779
v 0.330821 1.750714 0.482781
v 0.330821 1.858932 0.482781
v 0.330821 1.858928 -1.648340
v 0.330821 0.829570 0.416873
v 0.332081 -0.000001 0.416873
v -0.330959 1.858932 0.416873
v -0.330959 1.750713 -1.648340
v -0.330960 1.750716 0.482781
v -0.330959 1.858932 0.482781
v -0.330960 -0.000004 -1.648340
v -0.330960 -0.000003 -0.582780
v -0.330960 0.829462 -1.648340
v -0.330959 1.858930 -0.582779
v -0.330959 1.858928 -1.648340
v -0.330960 -0.000001 0.416873
v 0.330822 1.750714 0.416873
v 0.000001 1.750716 0.416873
v -0.330959 1.750716 0.416873
v -0.330959 0.829354 0.416873
v 0.000138 0.829462 0.416873
vn 1.0000 -0.0000 -0.0000
vn -0.0000 1.0000 -0.0000
vn -0.0000 -1.0000 -0.0000
vn -1.0000 -0.0000 -0.0000
vn -0.0000 -0.0000 -1.0000
vn -0.0000 -0.0000 1.0000
vn -1.0000 -0.0022 -0.0000
vn -1.0000 -0.0011 -0.0000
vt 0.764064 0.013545
vt 0.764064 0.218986
vt 0.593599 0.218985
vt 0.593599 0.013545
vt 0.055291 0.437971
vt 0.123307 0.437971
vt 0.123307 0.451515
vt 0.055291 0.451515
vt 0.269107 0.451515
vt 0.246614 0.451515
vt 0.246614 0.437971
vt 0.269107 0.437971
vt 0.382032 0.218985
vt 0.382032 0.013545
vt 0.382032 0.218985
vt 0.170465 0.218985
vt 0.170465 0.013545
vt 0.382032 0.013545
vt 0.301674 0.656955
vt 0.269107 0.656955
vt 0.301674 0.451515
vt 0.191294 0.437971
vt 0.246614 0.437971
vt 0.246614 0.451515
vt 0.191294 0.451515
vt 0.055291 0.656955
vt 0.123307 0.656955
vt 0.123307 0.875940
vt 0.055291 0.875940
vt 0.437937 0.875940
vt 0.369921 0.875940
vt 0.369921 0.656955
vt 0.437937 0.656955
vt 0.269107 0.875940
vt 0.246614 0.875940
vt 0.246614 0.656955
vt 0.382032 0.437970
vt 0.170465 0.437970
vt 0.382032 0.437970
vt 0.593599 0.437970
vt 0.931136 0.460210
vt 0.931395 0.649538
vt 0.863148 0.649538
vt 0.863148 0.460210
vt 0.986455 0.606389
vt 0.986455 0.538402
vt 1.000000 0.538402
vt 1.000000 0.606390
vt 0.716966 0.820003
vt 0.716966 0.649538
vt 0.739841 0.649538
vt 0.739841 0.820003
vt 0.382032 -0.000000
vt 0.593599 0.000000
vt 0.739841 0.437971
vt 0.762717 0.460210
vt 0.762717 0.649538
vt 0.170465 0.000000
vt 0.382032 0.000000
vt 0.716966 0.460210
vt 0.739841 0.437971
vt 0.684551 0.460210
vt 0.616535 0.460210
vt 0.616535 0.437971
vt 0.684551 0.437971
vt 0.493228 0.437971
vt 0.516103 0.460211
vt 0.516103 0.649538
vt 0.493228 0.649538
vt 0.978854 0.359792
vt 0.978854 0.189327
vt 0.992399 0.189327
vt 0.992399 0.359792
vt 0.548547 0.460211
vt 0.548547 0.437971
vt 0.986455 0.437971
vt 0.986455 0.649538
vt 0.963962 0.649538
vt 0.963580 0.460210
vt 0.246614 0.656955
vt 0.191294 0.656955
vt 0.301674 0.875940
vt 0.493228 0.656955
vt 0.470352 0.656955
vt 0.470352 0.451515
vt 0.493228 0.451515
vt 0.246614 0.875940
vt 0.191294 0.875940
vt 0.795132 0.460210
vt 0.795132 0.649538
vt 0.493228 0.875940
vt 0.470352 0.875940
vt 0.931136 0.437971
vt 0.863148 0.437971
vt 0.795132 0.437971
vt 0.470352 0.437971
vt 0.493228 0.437971
vt 0.978854 -0.000000
vt 0.992399 0.000000
vt 0.796890 0.189307
vt 0.764446 0.189329
vt 0.764446 0.000001
vt 0.796889 0.000001
vt 0.978854 -0.000000
vt 0.978854 0.189328
vt 0.965309 0.189328
vt 0.965309 -0.000000
vt 0.986455 0.470386
vt 0.986455 0.437970
vt 1.000000 0.437970
vt 1.000000 0.470386
vt 0.369921 0.451515
vt 0.437937 0.451515
vt 0.000000 0.013546
vt 0.000000 0.000001
vt 0.762717 0.820003
vt 0.739841 0.820003
vt 0.764064 0.000001
vt 0.931395 0.820003
vt 0.863148 0.820003
vt 0.764064 0.437970
vt 0.000000 0.437971
vt 0.000000 0.218986
vt 0.986455 0.820003
vt 0.963962 0.820003
vt 0.795132 0.820003
vt 0.978854 0.359792
vt 0.965309 0.359793
vt 0.965309 0.359793
vt 0.932894 0.359793
vt 0.932894 0.189351
vt 0.965309 0.189328
vt 0.764064 0.359793
vt 0.796632 0.359793
vt 0.986455 0.638833
vt 1.000000 0.638833
vt 0.864878 0.359793
vt 0.864849 0.189329
vt 0.932893 0.000000
vt 0.965308 0.000000
vt 0.493228 0.820003
vt 0.515721 0.820003
vt 0.000000 0.451515
vt 0.000000 0.656955
vt 0.000000 0.875940
vt 0.000000 0.437971
vt 0.864877 0.000000
s 1
f 12/1/1 23/2/1 32/3/1 5/4/1
f 69/5/2 36/6/2 9/7/2 66/8/2
f 2/9/3 12/10/3 39/11/3 13/12/3
f 24/13/1 10/14/1 5/4/1 32/3/1
f 22/15/4 33/16/4 3/17/4 11/18/4
f 57/19/3 42/20/3 2/9/3 65/21/3
f 62/22/2 40/23/2 10/24/2 55/25/2
f 73/26/2 26/27/2 20/28/2 74/29/2
f 66/8/2 9/7/2 26/27/2 73/26/2
f 70/30/3 19/31/3 25/32/3 71/33/3
f 41/34/3 16/35/3 23/36/3 42/20/3
f 7/37/4 28/38/4 33/16/4 22/15/4
f 15/39/1 24/13/1 32/3/1 30/40/1
f 59/41/5 58/42/5 31/43/5 46/44/5
f 61/45/3 17/46/3 77/47/3 76/48/3
f 4/49/6 27/50/6 34/51/6 35/52/6
f 10/14/1 40/53/1 38/54/1 5/4/1
f 7/55/5 44/56/5 49/57/5 28/51/5
f 11/18/4 3/17/4 34/58/4 37/59/4
f 6/60/6 37/61/6 34/51/6 27/50/6
f 68/62/6 17/63/6 36/64/6 69/65/6
f 40/66/6 14/67/6 29/68/6 38/69/6
f 13/70/7 29/71/8 52/72/8 2/73/7
f 61/74/6 14/67/6 40/66/6 62/75/6
f 15/76/5 30/77/5 43/78/5 47/79/5
f 55/25/2 10/24/2 24/80/2 60/81/2
f 56/82/3 41/34/3 42/20/3 57/19/3
f 21/83/3 48/84/3 1/85/3 18/86/3
f 60/81/2 24/80/2 15/87/2 63/88/2
f 67/89/5 72/90/5 49/57/5 44/56/5
f 8/91/3 45/92/3 48/84/3 21/83/3
f 63/93/5 59/41/5 46/44/5 20/94/5
f 74/95/5 67/89/5 44/56/5 7/55/5
f 18/86/3 1/85/3 4/96/3 35/97/3
f 29/71/8 14/98/4 54/99/4 52/72/8
f 64/100/6 52/101/6 54/102/6 76/103/6
f 6/104/1 27/105/1 51/106/1 53/107/1
f 68/108/3 6/109/3 53/110/3 78/111/3
f 42/20/3 23/36/3 12/10/3 2/9/3
f 71/33/3 25/32/3 50/112/3 75/113/3
f 3/17/4 18/114/4 35/115/4 34/58/4
f 49/57/5 45/116/5 8/117/5 28/51/5
f 39/118/1 12/1/1 5/4/1 38/54/1
f 58/42/5 56/119/5 19/120/5 31/43/5
f 23/2/1 16/121/1 30/40/1 32/3/1
f 28/38/4 8/122/4 21/123/4 33/16/4
f 30/77/5 16/124/5 41/125/5 43/78/5
f 72/90/5 70/126/5 45/116/5 49/57/5
f 4/127/1 1/128/1 51/106/1 27/105/1
f 33/16/4 21/123/4 18/114/4 3/17/4
f 1/129/6 75/130/6 79/131/6 51/132/6
f 2/133/6 52/101/6 64/100/6 65/134/6
f 41/125/5 56/119/5 58/42/5 43/78/5
f 15/76/5 47/79/5 59/41/5 63/93/5
f 26/27/2 60/81/2 63/88/2 20/28/2
f 19/31/3 56/82/3 57/19/3 25/32/3
f 9/7/2 55/25/2 60/81/2 26/27/2
f 17/63/6 61/74/6 62/75/6 36/64/6
f 14/135/3 61/45/3 76/48/3 54/136/3
f 47/79/5 43/78/5 58/42/5 59/41/5
f 36/6/2 62/22/2 55/25/2 9/7/2
f 25/32/3 57/19/3 65/21/3 50/112/3
f 79/131/6 75/130/6 50/137/6 80/138/6
f 19/120/5 70/126/5 72/90/5 31/43/5
f 48/84/3 71/33/3 75/113/3 1/85/3
f 17/46/3 68/108/3 78/111/3 77/47/3
f 51/132/6 79/131/6 78/139/6 53/140/6
f 39/141/6 38/69/6 29/68/6 13/142/6
f 20/94/5 46/44/5 67/89/5 74/95/5
f 46/44/5 31/43/5 72/90/5 67/89/5
f 6/60/6 68/62/6 69/65/6 37/61/6
f 45/92/3 70/30/3 71/33/3 48/84/3
f 11/143/2 66/8/2 73/26/2 22/144/2
f 22/144/2 73/26/2 74/29/2 7/145/2
f 37/146/2 69/5/2 66/8/2 11/143/2
f 77/147/6 78/139/6 79/131/6 80/138/6
f 76/103/6 77/147/6 80/138/6 64/100/6
f 50/137/6 65/134/6 64/100/6 80/138/6
