# Blender 5.0.1
# www.blender.org
mtllib fillerwall_3.mtl
o 3rd_Floor_Center_Wall.004
v 0.489471 1.748401 0.718340
v 0.489471 0.110529 0.718341
v -0.489468 1.748400 0.718341
v -0.489467 0.110528 0.718341
v 0.000002 0.110529 0.718341
v 0.000002 1.748401 0.718340
v 0.600002 -0.000000 -0.347220
v 0.600001 1.858933 -0.347220
v -0.599998 -0.000000 -0.347219
v -0.599999 1.858932 -0.347220
v 0.000002 -0.000000 -0.347219
v 0.000001 1.858933 -0.347220
v -0.428484 0.929464 0.651304
v 0.428488 0.929465 0.651304
v 0.600002 0.505348 0.718341
v -0.599998 0.505348 0.718341
v 0.000002 0.929465 0.651304
v 0.600001 0.000002 -1.412780
v 0.000001 1.858934 -1.412780
v 0.600001 1.858935 -1.412781
v -0.428484 0.929464 0.676784
v -0.599998 0.000001 -1.412780
v -0.599999 1.858934 -1.412780
v 0.600001 0.505348 -0.347220
v -0.000696 0.505348 -1.412780
v 0.428488 0.505348 0.651304
v -0.428484 0.505348 0.651304
v 0.467004 0.505345 0.676783
v 0.428488 0.929465 0.676784
v -0.489468 0.929464 0.676784
v -0.599998 0.505348 -0.347219
v -0.599999 0.505348 -1.412780
v 0.600001 0.505348 -1.412780
v -0.489467 0.505348 0.676784
v -0.428484 0.505348 0.676784
v 0.467004 0.929465 0.676784
v 0.000002 0.505348 0.651304
v 0.489471 0.505348 0.718341
v -0.000929 0.000002 -1.412780
v -0.489468 0.929464 0.718341
v 0.600001 1.858931 0.718340
v 0.489471 0.929465 0.718340
v -0.599998 1.858931 0.718341
v -0.489467 0.505348 0.718341
v 0.000002 -0.000002 0.718341
v 0.428488 0.505348 0.676784
v 0.600002 -0.000002 0.718341
v -0.428484 1.353582 0.651304
v 0.000002 1.858931 0.718340
v 0.428488 1.353582 0.651303
v -0.599998 -0.000002 0.718341
v -0.258990 1.353582 0.651304
v -0.258991 0.929468 -1.412780
v -0.258991 1.353582 -1.412780
v 0.600001 1.353582 -1.412780
v 0.000002 1.687417 0.676784
v 0.000002 0.171512 0.676784
v -0.000464 0.929468 -1.412780
v 0.000002 1.353582 0.651304
v -0.428484 1.353582 0.676784
v 0.428488 1.353582 0.676784
v -0.599999 1.353582 -1.412780
v 0.428487 1.687417 0.676784
v -0.428484 1.687417 0.676784
v 0.428488 0.171512 0.676784
v -0.428484 0.171512 0.676784
v -0.599998 0.929466 -0.347219
v 0.489471 1.748401 0.676784
v -0.599999 0.929468 -1.412780
v -0.489468 1.748400 0.676784
v -0.599998 1.353582 -0.347220
v 0.000002 0.110529 0.676784
v -0.489468 1.353582 0.676784
v 0.489471 0.110529 0.676784
v 0.489471 1.353582 0.676784
v 0.000002 1.748401 0.676784
v -0.489468 1.353582 0.718341
v -0.489467 0.110528 0.676784
v 0.600001 0.929468 -1.412780
v 0.600001 0.929466 -0.347220
v -0.599998 0.929464 0.718341
v 0.600002 0.929465 0.718340
v 0.000002 1.687417 0.651303
v 0.000002 0.171512 0.651304
v 0.489471 1.353582 0.718340
v -0.000232 1.353582 -1.412780
v 0.600001 1.353582 -0.347220
v -0.599998 1.353582 0.718341
v 0.600001 1.353582 0.718340
v 0.428487 1.687417 0.651303
v -0.428484 1.687417 0.651304
v 0.428488 0.171512 0.651304
v -0.428484 0.171512 0.651304
v -0.258990 -0.000002 0.718341
v -0.258990 -0.000000 -0.347219
v -0.258990 1.858932 -0.347220
v -0.258991 1.858934 -1.412780
v -0.258990 1.858931 0.718340
v -0.258990 0.505348 0.651304
v -0.258991 0.000002 -1.412780
v -0.258991 0.505348 -1.412780
v -0.258990 0.110528 0.718341
v -0.258990 1.748400 0.718340
v -0.258990 0.110528 0.676784
v -0.258990 1.748400 0.676784
v -0.258990 1.687417 0.676784
v -0.258990 0.171512 0.676784
v -0.258990 0.929464 0.651304
v -0.258990 0.171512 0.651304
v -0.258990 1.687417 0.651303
v 0.258877 1.353582 0.651303
v 0.258876 0.505348 -1.412780
v 0.258876 0.929468 -1.412780
v 0.258876 1.858935 -1.412780
v 0.258877 -0.000002 0.718341
v 0.258877 -0.000000 -0.347220
v 0.258877 1.858933 -0.347220
v 0.258877 1.858931 0.718340
v 0.258876 0.000002 -1.412780
v 0.258877 0.505348 0.651304
v 0.258877 0.110529 0.718341
v 0.258877 1.748401 0.718340
v 0.258877 0.110529 0.676784
v 0.258877 1.748401 0.676784
v 0.258877 0.171512 0.676784
v 0.258877 1.687417 0.676784
v 0.258876 1.353582 -1.412780
v 0.258877 0.929465 0.651304
v 0.258877 0.171512 0.651304
v 0.258877 1.687417 0.651303
v 0.467003 1.353582 0.676783
v -0.466997 0.505348 0.676785
v -0.467000 1.353582 0.676784
v 0.467003 1.725933 0.676784
v -0.467000 0.929464 0.676784
v -0.467000 1.725933 0.676784
v 0.000002 0.132996 0.676784
v 0.467004 0.132996 0.676784
v 0.000002 1.725933 0.676784
v -0.467000 0.132996 0.676784
v -0.258990 1.725933 0.676784
v -0.258990 0.132996 0.676784
v 0.258877 1.725935 0.676784
v 0.258877 0.132995 0.676784
v -0.466997 0.505348 0.718341
v -0.466997 0.929464 0.718341
v 0.467003 0.505348 0.718341
v 0.467003 0.929465 0.718340
v -0.466997 1.353582 0.718341
v 0.000002 1.725935 0.718340
v 0.467003 1.353582 0.718340
v 0.000002 0.132995 0.718341
v -0.258990 0.132995 0.718341
v 0.258877 1.725935 0.718340
v -0.258990 1.725935 0.718340
v 0.258877 0.132995 0.718341
v 0.489472 0.505345 0.676784
vn -0.0000 1.0000 -0.0000
vn -0.0000 -1.0000 -0.0000
vn 1.0000 -0.0000 -0.0000
vn -1.0000 -0.0000 -0.0000
vn -0.0000 -0.0000 -1.0000
vn -0.0000 -0.0000 1.0000
vn -0.0000 1.0000 -0.0001
vn 1.0000 -0.0000 -0.0001
vt 0.044740 0.858497
vt 0.044740 0.852551
vt 0.048929 0.852551
vt 0.048929 0.858497
vt 0.469242 0.519654
vt 0.489017 0.519654
vt 0.489017 0.613002
vt 0.469242 0.613002
vt 0.301184 0.613002
vt 0.339787 0.613002
vt 0.339787 0.706350
vt 0.301184 0.706350
vt 0.143067 0.914012
vt 0.143067 0.970505
vt 0.135320 0.970505
vt 0.135320 0.914012
vt 0.235567 0.706350
vt 0.209518 0.706350
vt 0.209518 0.613002
vt 0.235567 0.613002
vt 0.275126 0.706350
vt 0.255351 0.706350
vt 0.255351 0.613002
vt 0.275126 0.613002
vt 0.209518 0.519655
vt 0.235567 0.519655
vt 0.324385 0.914718
vt 0.371973 0.914718
vt 0.371930 0.985953
vt 0.324385 0.985953
vt 0.170915 0.613002
vt 0.170916 0.519655
vt 0.106120 0.706350
vt 0.067518 0.706350
vt 0.067518 0.613002
vt 0.106120 0.613002
vt 0.324385 0.795150
vt 0.372059 0.795150
vt 0.372016 0.854935
vt 0.324385 0.854935
vt 0.143067 0.792641
vt 0.143067 0.736147
vt 0.135320 0.736147
vt 0.135320 0.792641
vt 0.048929 0.967290
vt 0.048929 0.914012
vt 0.044740 0.914012
vt 0.044740 0.970505
vt 0.170915 0.706350
vt 0.138518 0.706350
vt 0.138518 0.613002
vt 0.184277 0.736147
vt 0.227246 0.736147
vt 0.247852 0.720332
vt 0.184277 0.720332
vt 0.041468 0.519654
vt 0.067518 0.519654
vt 0.041468 0.613002
vt 0.087730 0.858497
vt 0.087730 0.852551
vt 0.184277 0.852551
vt 0.215876 0.852551
vt 0.215876 0.848905
vt 0.184277 0.848905
vt 0.041468 0.706350
vt 0.044740 0.792641
vt 0.044740 0.736147
vt 0.024133 0.720332
vt 0.024133 0.792641
vt 0.404582 0.613002
vt 0.443185 0.613002
vt 0.443185 0.706350
vt 0.404582 0.706350
vt 0.419497 0.914718
vt 0.482128 0.914718
vt 0.482128 0.985953
vt 0.419497 0.985953
vt 0.223057 0.739362
vt 0.223056 0.792641
vt 0.227246 0.792641
vt 0.652436 0.817444
vt 0.652436 0.878129
vt 0.684036 0.878129
vt 0.684036 0.817444
vt 0.044740 0.853326
vt 0.024133 0.853326
vt 0.184277 0.739362
vt 0.372184 0.613002
vt 0.372184 0.706350
vt 0.652436 0.769676
vt 0.684036 0.769676
vt 0.106120 0.519655
vt 0.135993 0.736147
vt 0.135993 0.739362
vt 0.247852 0.792641
vt 0.469243 0.706350
vt 0.489089 0.706350
vt 0.419498 0.723917
vt 0.482128 0.723917
vt 0.482128 0.795150
vt 0.419498 0.795150
vt 0.138518 0.519655
vt 0.555889 0.769676
vt 0.555889 0.817444
vt 0.604152 0.817444
vt 0.604152 0.769676
vt 0.227246 0.914012
vt 0.227246 0.970505
vt 0.247852 0.986321
vt 0.247852 0.914012
vt 0.135320 0.744873
vt 0.130570 0.744873
vt 0.130570 0.792641
vt 0.087730 0.736147
vt 0.135993 0.720332
vt 0.087730 0.720332
vt 0.087730 0.970505
vt 0.024133 0.986321
vt 0.087730 0.986321
vt 0.184277 0.970505
vt 0.135993 0.970505
vt 0.135993 0.986321
vt 0.184277 0.986321
vt 0.255351 0.519655
vt 0.275126 0.519655
vt 0.227246 0.853326
vt 0.247852 0.853326
vt 0.372184 0.519655
vt 0.404582 0.519655
vt 0.048928 0.852551
vt 0.301184 0.519655
vt 0.339787 0.519655
vt 0.135993 0.852551
vt 0.135993 0.848905
vt 0.087730 0.848905
vt 0.135320 0.853326
vt 0.130570 0.853326
vt 0.130570 0.914012
vt 0.135320 0.961780
vt 0.130570 0.961780
vt 0.184277 0.858497
vt 0.227246 0.858497
vt 0.227246 0.852551
vt 0.324385 0.723917
vt 0.372101 0.723917
vt 0.024133 0.914012
vt 0.223057 0.914012
vt 0.223057 0.967290
vt 0.419498 0.854935
vt 0.087730 0.739362
vt 0.087730 0.967291
vt 0.184277 0.967290
vt 0.652436 0.938815
vt 0.604152 0.938815
vt 0.604152 0.986582
vt 0.652436 0.986582
vt 0.048928 0.853326
vt 0.223057 0.853326
vt 0.135320 0.961779
vt 0.130570 0.961779
vt 0.555889 0.878129
vt 0.604152 0.878129
vt 0.482128 0.854935
vt 0.555889 0.938815
vt 0.555889 0.986582
vt 0.443185 0.519654
vt 0.684036 0.938815
vt 0.684036 0.986582
vt 0.135993 0.967290
vt 0.021756 0.706350
vt 0.021685 0.613002
vt 0.021685 0.519654
vt 0.524268 0.878129
vt 0.524268 0.938815
vt 0.524268 0.986583
vt 0.524268 0.817444
vt 0.048928 0.739362
vt 0.261733 0.723917
vt 0.261733 0.795150
vt 0.056109 0.852551
vt 0.056109 0.848905
vt 0.261733 0.854935
vt 0.261733 0.914718
vt 0.524268 0.769676
vt 0.143067 0.967291
vt 0.135320 0.967291
vt 0.261733 0.985953
vt 0.056109 0.744873
vt 0.087730 0.744873
vt 0.135993 0.961779
vt 0.087730 0.961779
vt 0.135993 0.744873
vt 0.184277 0.744873
vt 0.184277 0.961779
vt 0.215876 0.853326
vt 0.215876 0.914012
vt 0.215876 0.792641
vt 0.056109 0.914012
vt 0.056109 0.853326
vt 0.215876 0.961779
vt 0.056109 0.961780
vt 0.056109 0.792641
vt 0.048928 0.792640
vt 0.215876 0.744873
vt 0.135993 0.858497
vt 0.143067 0.853326
vt 0.135320 0.792641
vt 0.135320 0.792640
vt 0.223056 0.853326
vt 0.135320 0.967290
vt 0.135993 0.967291
vt 0.184277 0.967291
vt 0.048929 0.853326
vt 0.048929 0.792641
vt 0.135320 0.739362
vt 0.143067 0.739362
vt 0.223056 0.914012
vt 0.223056 0.852551
vt 0.223056 0.858497
vt 0.223057 0.852551
vt 0.135320 0.739362
vt 0.044740 0.792640
vt 0.135320 0.792640
s 1
f 85/1/1 75/2/1 131/3/1 151/4/1
f 115/5/2 45/6/2 11/7/2 116/8/2
f 8/9/3 87/10/3 55/11/3 20/12/3
f 85/13/4 1/14/4 68/15/4 75/16/4
f 97/17/1 23/18/1 10/19/1 96/20/1
f 114/21/1 19/22/1 12/23/1 117/24/1
f 96/20/1 10/19/1 43/25/1 98/26/1
f 127/27/5 86/28/5 19/29/5 114/30/5
f 71/31/4 88/32/4 43/25/4 10/19/4
f 32/33/4 22/34/4 9/35/4 31/36/4
f 112/37/5 25/38/5 58/39/5 113/40/5
f 44/41/3 4/42/3 78/43/3 34/44/3
f 134/45/6 131/46/6 75/47/6 68/48/6
f 62/49/4 69/50/4 67/51/4 71/31/4
f 102/52/6 4/53/6 51/54/6 94/55/6
f 94/56/2 51/57/2 9/35/2 95/58/2
f 122/59/2 124/60/2 68/2/2 1/1/2
f 106/61/2 64/62/2 91/63/2 110/64/2
f 100/65/2 95/58/2 9/35/2 22/34/2
f 38/66/6 2/67/6 47/68/6 15/69/6
f 24/70/3 7/71/3 18/72/3 33/73/3
f 54/74/5 62/75/5 23/76/5 97/77/5
f 140/78/6 132/79/6 34/80/6 78/53/6
f 99/81/6 108/82/6 13/83/6 27/84/6
f 42/85/6 38/66/6 15/69/6 82/86/6
f 142/87/6 140/78/6 78/53/6 104/52/6
f 80/88/3 24/70/3 33/73/3 79/89/3
f 109/90/6 99/81/6 27/84/6 93/91/6
f 9/35/4 51/57/4 16/92/4 31/36/4
f 102/52/6 5/93/6 152/94/6 153/87/6
f 4/53/6 44/80/6 16/95/6 51/54/6
f 119/96/2 116/8/2 11/7/2 39/97/2
f 87/10/3 80/88/3 79/89/3 55/11/3
f 100/98/5 22/99/5 32/100/5 101/101/5
f 31/36/4 16/92/4 81/102/4 67/51/4
f 129/103/6 120/104/6 37/105/6 84/106/6
f 77/107/6 3/108/6 43/109/6 88/110/6
f 35/44/3 66/111/3 93/112/3 27/113/3
f 121/114/6 5/93/6 45/115/6 115/116/6
f 122/117/6 1/48/6 41/118/6 118/119/6
f 103/120/6 6/121/6 49/122/6 98/123/6
f 107/61/1 109/64/1 93/63/1 66/62/1
f 117/24/1 12/23/1 49/124/1 118/125/1
f 44/80/6 40/126/6 81/127/6 16/95/6
f 65/111/4 46/44/4 26/113/4 92/112/4
f 113/40/5 58/39/5 86/28/5 127/27/5
f 82/128/3 15/129/3 24/70/3 80/88/3
f 147/4/7 38/1/7 157/2/7 28/130/7
f 41/131/3 89/132/3 87/10/3 8/9/3
f 126/60/2 56/133/2 83/134/2 130/135/2
f 60/16/3 21/136/3 13/137/3 48/138/3
f 23/18/4 62/49/4 71/31/4 10/19/4
f 125/60/1 129/135/1 84/134/1 57/133/1
f 61/16/4 63/139/4 90/140/4 50/138/4
f 103/141/2 3/142/2 70/143/2 105/61/2
f 119/144/5 39/145/5 25/38/5 112/37/5
f 3/14/3 77/13/3 73/16/3 70/15/3
f 85/47/6 42/85/6 82/86/6 89/146/6
f 21/136/3 35/44/3 27/113/3 13/137/3
f 133/147/6 136/148/6 70/108/6 73/107/6
f 58/39/5 53/149/5 54/74/5 86/28/5
f 144/150/6 137/94/6 72/93/6 123/114/6
f 143/151/6 134/45/6 68/48/6 124/117/6
f 141/152/6 105/120/6 70/108/6 136/148/6
f 52/153/6 59/154/6 83/155/6 110/156/6
f 131/46/6 36/157/6 75/47/6
f 132/79/6 135/158/6 30/126/6 34/80/6
f 40/126/6 77/107/6 88/110/6 81/127/6
f 1/48/6 85/47/6 89/146/6 41/118/6
f 64/159/3 60/16/3 48/138/3 91/160/3
f 29/136/4 61/16/4 50/138/4 14/137/4
f 120/104/6 128/161/6 17/162/6 37/105/6
f 101/101/5 32/100/5 69/163/5 53/149/5
f 102/141/1 104/61/1 78/143/1 4/142/1
f 108/82/6 17/162/6 59/154/6 52/153/6
f 135/158/6 133/147/6 73/107/6 30/126/6
f 111/164/6 130/165/6 83/155/6 59/154/6
f 89/132/3 82/128/3 80/88/3 87/10/3
f 69/50/4 32/33/4 31/36/4 67/51/4
f 67/51/4 81/102/4 88/32/4 71/31/4
f 128/161/6 111/164/6 59/154/6 17/162/6
f 46/44/4 29/136/4 14/137/4 26/113/4
f 53/149/5 69/163/5 62/75/5 54/74/5
f 15/129/3 47/166/3 7/71/3 24/70/3
f 13/83/6 108/82/6 52/153/6 48/167/6
f 25/38/5 101/101/5 53/149/5 58/39/5
f 48/167/6 52/153/6 110/156/6 91/168/6
f 139/169/6 76/121/6 105/120/6 141/152/6
f 57/133/1 84/134/1 109/64/1 107/61/1
f 3/108/6 103/120/6 98/123/6 43/109/6
f 39/145/5 100/98/5 101/101/5 25/38/5
f 84/106/6 37/105/6 99/81/6 109/90/6
f 137/94/6 142/87/6 104/52/6 72/93/6
f 37/105/6 17/162/6 108/82/6 99/81/6
f 86/28/5 54/74/5 97/77/5 19/29/5
f 39/170/2 11/171/2 95/58/2 100/65/2
f 56/133/2 106/61/2 110/64/2 83/134/2
f 45/172/2 94/56/2 95/58/2 11/171/2
f 5/93/6 102/52/6 94/55/6 45/115/6
f 12/23/1 96/20/1 98/26/1 49/124/1
f 19/22/1 97/17/1 96/20/1 12/23/1
f 14/173/6 50/174/6 111/164/6 128/161/6
f 50/174/6 90/175/6 130/165/6 111/164/6
f 26/176/6 14/173/6 128/161/6 120/104/6
f 139/169/6 143/151/6 124/117/6 76/121/6
f 138/177/6 144/150/6 123/114/6 74/67/6
f 18/178/5 119/144/5 112/37/5 33/179/5
f 65/180/1 92/181/1 129/135/1 125/60/1
f 63/180/2 126/60/2 130/135/2 90/181/2
f 79/182/5 113/40/5 127/27/5 55/183/5
f 8/9/1 117/24/1 118/125/1 41/131/1
f 6/121/6 122/117/6 118/119/6 49/122/6
f 2/67/6 121/114/6 115/116/6 47/68/6
f 92/184/6 26/176/6 120/104/6 129/103/6
f 18/72/2 7/71/2 116/8/2 119/96/2
f 124/15/3 122/14/3 154/185/3 143/186/3
f 33/179/5 112/37/5 113/40/5 79/182/5
f 55/183/5 127/27/5 114/30/5 20/187/5
f 20/12/1 114/21/1 117/24/1 8/9/1
f 47/166/2 115/5/2 116/8/2 7/71/2
f 2/1/1 74/2/1 123/60/1 121/59/1
f 65/188/6 125/189/6 144/150/6 138/177/6
f 56/190/6 126/191/6 143/151/6 139/169/6
f 57/192/6 107/193/6 142/87/6 137/94/6
f 56/190/6 139/169/6 141/152/6 106/194/6
f 21/195/6 60/196/6 133/147/6 135/158/6
f 35/197/6 21/195/6 135/158/6 132/79/6
f 61/198/6 29/199/6 36/157/6 131/46/6
f 106/194/6 141/152/6 136/148/6 64/200/6
f 126/191/6 63/201/6 134/45/6 143/151/6
f 125/189/6 57/192/6 137/94/6 144/150/6
f 60/196/6 64/200/6 136/148/6 133/147/6
f 46/202/6 65/188/6 138/177/6 28/203/6
f 107/193/6 66/204/6 140/78/6 142/87/6
f 66/204/6 35/197/6 132/79/6 140/78/6
f 29/199/6 46/202/6 28/203/6 36/157/6
f 63/201/6 61/198/6 131/46/6 134/45/6
f 156/59/1 144/60/1 137/133/1 152/205/1
f 146/206/8 145/41/3 132/207/3 135/136/8
f 149/13/8 146/206/8 135/136/8 133/16/8
f 147/41/4 148/206/4 36/136/4 28/208/4
f 148/206/4 151/13/4 131/16/4 36/136/4
f 152/205/1 137/133/1 142/61/1 153/141/1
f 150/205/2 155/141/2 141/61/2 139/133/2
f 150/205/2 139/133/2 143/60/2 154/59/2
f 40/126/6 44/80/6 145/79/6 146/209/6
f 103/14/4 105/15/4 141/210/4 155/185/4
f 122/117/6 6/121/6 150/211/6 154/151/6
f 6/121/6 103/120/6 155/212/6 150/211/6
f 38/66/6 42/85/6 148/213/6 147/214/6
f 121/42/3 123/43/3 144/215/3 156/216/3
f 77/107/6 40/126/6 146/209/6 149/217/6
f 5/93/6 121/114/6 156/150/6 152/94/6
f 44/142/2 34/143/2 132/218/2 145/219/2
f 73/143/1 77/142/1 149/219/1 133/220/1
f 104/43/4 102/42/4 153/216/4 142/221/4
f 42/85/6 85/47/6 151/46/6 148/213/6
f 157/222/6 28/203/6 138/177/6 74/67/6
f 157/223/4 74/43/4 2/42/4 38/41/4
