# Blender 4.5.3 LTS
# www.blender.org
mtllib 3x4wall_4-3.mtl
o Pediment_Wall.015
v 0.106116 0.000001 0.482780
v 0.106116 1.532853 0.482780
v 0.106116 0.000001 0.351720
v 0.106116 1.658933 0.351720
v 0.106116 1.618950 0.482780
v 0.106116 1.658933 0.482780
v 0.106116 1.446250 0.482780
v 0.106116 0.145001 0.482780
v 0.106116 0.512501 0.482780
v 0.591831 1.446250 0.220659
v 0.591831 0.512501 0.220659
v 0.591830 1.618950 0.220659
v 0.106116 0.000001 0.220659
v 0.106116 1.658933 0.220659
v 0.591831 1.658933 0.220659
v 0.591831 1.532853 0.220659
v 0.591831 0.145001 0.220659
v 0.591831 0.000001 0.220659
v 0.591831 1.446250 0.351720
v 0.591830 1.446250 0.482780
v 0.591831 0.512501 0.351720
v 0.591831 0.512501 0.482780
v 0.591831 0.145001 0.351720
v 0.591830 1.618950 0.482780
v 0.591831 1.658933 0.482780
v 0.591831 1.618950 0.351720
v 0.591831 1.658933 0.351720
v 0.591831 1.532853 0.482780
v 0.591831 1.532852 0.351720
v 0.591831 0.145001 0.482780
v 0.591831 0.000001 0.351720
v 0.591831 0.000001 0.482780
v 0.106116 0.000005 -1.648340
v 0.591831 0.000005 -1.648340
v 0.106116 0.512505 -1.648340
v 0.591831 0.512505 -1.648340
v 0.591831 0.145005 -1.648340
v 0.106116 0.145005 -1.648340
v 0.591830 1.618954 -1.648340
v 0.106116 1.618954 -1.648340
v 0.106116 1.658937 -1.648340
v 0.591831 1.658937 -1.648340
v 0.106116 1.532857 -1.648340
v 0.106116 1.446254 -1.648340
v 0.591831 1.446254 -1.648340
v 0.591831 1.532857 -1.648340
v 0.591831 1.658935 -1.348320
v 0.591831 0.512503 -1.348320
v 0.591830 1.618952 -1.348320
v 0.591831 1.532855 -1.348320
v 0.591831 0.000003 -1.348320
v 0.106116 1.658935 -1.348320
v 0.591831 0.145003 -1.348320
v 0.106116 0.000003 -1.348320
v 0.591831 1.446252 -1.348320
v 0.591830 1.575248 0.220659
v 0.591831 1.575248 0.351720
v 0.591830 1.575248 0.482780
v 0.106116 1.575252 -1.648340
v 0.591830 1.575252 -1.648340
v 0.591830 1.575250 -1.348320
v 0.106116 1.575248 0.482780
v 0.106116 1.532853 0.514980
v 0.615250 1.532853 0.505549
v 0.624951 1.532855 -1.348320
v 0.615250 1.532857 -1.671109
v 0.624950 1.575248 0.220659
v 0.624951 1.532853 0.220659
v 0.624951 1.532852 0.351720
v 0.615250 1.575248 0.505549
v 0.106116 1.575252 -1.680540
v 0.106116 1.532857 -1.680540
v 0.615250 1.575252 -1.671109
v 0.624951 1.575248 0.351720
v 0.624950 1.575251 -1.348320
v 0.106116 1.575248 0.514980
v 0.625947 1.658935 -1.348320
v 0.625947 1.658933 0.220659
v 0.106116 1.618950 0.515950
v 0.106116 1.658933 0.515950
v 0.625947 1.618951 -1.348320
v 0.625947 1.618949 0.220659
v 0.615955 1.658933 0.506234
v 0.615954 1.618950 0.506235
v 0.625947 1.618949 0.351720
v 0.625947 1.658933 0.351720
v 0.615954 1.618953 -1.671794
v 0.106116 1.618954 -1.681509
v 0.106116 1.658937 -1.681509
v 0.615955 1.658937 -1.671794
v 0.106116 1.446250 0.438109
v 0.106116 0.512501 0.438109
v 0.106116 0.979375 0.482780
v 0.591831 0.979375 0.351720
v 0.591831 0.979376 0.220659
v 0.591831 0.979376 0.482780
v 0.106116 0.979380 -1.648340
v 0.591831 0.979380 -1.648340
v 0.591831 0.979378 -1.348320
v 0.106116 0.979375 0.438109
v 0.591831 0.100000 0.898269
v 0.591831 0.100000 0.482780
v 0.591831 -0.000000 0.898269
v 0.591831 -0.000000 0.482780
v -0.608818 0.000001 0.482780
v -0.608818 1.658933 0.351720
v -0.608819 1.446250 0.482780
v -0.608818 1.532852 0.482780
v -0.608818 0.000001 0.351720
v -0.608818 1.658933 0.482780
v -0.608819 1.618950 0.482780
v -0.608819 0.912501 0.482780
v -0.608818 0.000001 0.220659
v -0.608818 1.658933 0.220659
v -0.608818 0.145001 0.482780
v -0.608822 1.532856 -1.648340
v -0.608818 1.658937 -1.648340
v -0.608819 1.618954 -1.648340
v -0.608818 1.658935 -1.348320
v -0.608822 0.000003 -1.348320
v -0.608822 0.000005 -1.648340
v -0.608822 0.912505 -1.648340
v -0.608822 1.446254 -1.648340
v -0.608822 0.145005 -1.648340
v -0.608819 1.575248 0.482780
v -0.608820 1.575252 -1.648340
v -0.608818 1.532852 0.514980
v -0.608822 1.532856 -1.680540
v -0.608819 1.575248 0.514980
v -0.608820 1.575252 -1.680540
v -0.608818 1.658933 0.515950
v -0.608819 1.618950 0.515950
v -0.608818 1.658937 -1.681509
v -0.608819 1.618954 -1.681509
v -0.608819 1.446250 0.438109
v -0.608819 0.912501 0.438109
v -0.608819 1.279376 0.438109
v -0.608822 1.279380 -1.648340
v -0.608819 -0.000000 0.898269
v -0.608819 0.834461 0.898269
v -0.608819 0.834461 0.482780
v -0.608819 -0.000000 0.482780
v 0.591831 -0.000000 0.690525
v 0.591831 0.100000 0.690525
v -0.608819 -0.000000 0.690525
v -0.608819 0.834461 0.690525
vn -0.0000 -0.0000 -1.0000
vn -0.0000 1.0000 -0.0000
vn -0.0000 -1.0000 -0.0000
vn -0.0000 -0.0000 1.0000
vn 1.0000 -0.0000 -0.0000
vn 0.9995 -0.0000 -0.0300
vn 0.0185 -0.0000 0.9998
vn 0.0185 -0.0000 -0.9998
vn 0.9980 -0.0000 0.0629
vn 0.9995 -0.0000 -0.0309
vn 0.0191 -0.0000 0.9998
vn 0.9979 -0.0000 0.0645
vn 0.0191 -0.0000 -0.9998
vn 0.4883 0.8727 -0.0000
vn -1.0000 -0.0000 -0.0000
vn 0.5218 0.8531 -0.0000
vt 0.841689 0.652011
vt 0.841689 0.585143
vt 0.927612 0.585143
vt 0.927612 0.652011
vt 0.091799 0.733875
vt 0.091799 0.757722
vt 0.006025 0.757722
vt 0.006025 0.733875
vt 0.000000 0.757722
vt 0.000000 0.733875
vt 0.278909 0.733015
vt 0.364832 0.733015
vt 0.364832 0.787605
vt 0.278909 0.787605
vt 0.491304 0.423685
vt 0.364832 0.423685
vt 0.364832 0.399838
vt 0.491304 0.399838
vt 0.801517 0.000000
vt 0.801517 0.015758
vt 0.715594 0.015758
vt 0.715594 0.000000
vt 0.801517 0.252526
vt 0.801517 0.278909
vt 0.715594 0.278909
vt 0.715594 0.252526
vt 0.801517 0.185658
vt 0.715594 0.185658
vt 0.006025 0.781569
vt 0.091799 0.781569
vt 0.091799 0.787604
vt 0.001765 0.785837
vt 0.278909 0.423685
vt 0.278909 0.399838
vt 0.491304 0.447532
vt 0.364832 0.447532
vt 0.093252 0.340072
vt 0.026383 0.340073
vt 0.026383 0.054590
vt 0.093252 0.054590
vt 0.284945 0.029882
vt 0.284945 0.053730
vt 0.278910 0.053730
vt 0.278909 0.029882
vt 0.178202 0.363919
vt 0.178202 0.340072
vt 0.263152 0.340072
vt 0.263152 0.363919
vt 0.000000 0.054590
vt 0.000000 0.000000
vt 0.026384 0.000000
vt 0.218053 0.448392
vt 0.091799 0.448392
vt 0.091799 0.393802
vt 0.218053 0.393802
vt 0.278909 0.340072
vt 0.278909 0.363919
vt 0.093252 0.363920
vt 0.093252 0.387767
vt 0.026383 0.387767
vt 0.026383 0.363920
vt 0.278909 0.447532
vt 0.000000 0.363920
vt 0.000000 0.340073
vt 0.218053 0.751686
vt 0.218053 0.727839
vt 0.226004 0.727839
vt 0.226004 0.751686
vt 0.263152 0.387766
vt 0.178202 0.387767
vt 0.000000 0.387767
vt 0.226004 0.775533
vt 0.218053 0.775533
vt 0.278909 0.387766
vt 0.801517 0.100708
vt 0.715594 0.100708
vt 0.093252 0.000000
vt 0.248946 0.473689
vt 0.240994 0.473690
vt 0.240994 0.387767
vt 0.248946 0.387767
vt 0.006025 0.393802
vt 0.006025 0.448392
vt 0.000000 0.448392
vt 0.001765 0.389534
vt 0.370868 0.006035
vt 0.284945 0.006035
vt 0.280677 0.001768
vt 0.370868 0.000000
vt 0.284945 0.339212
vt 0.278910 0.339212
vt 0.841689 0.415243
vt 0.841689 0.399485
vt 0.927612 0.399485
vt 0.927612 0.415243
vt 0.841689 0.678394
vt 0.927612 0.678394
vt 0.841689 0.500193
vt 0.927612 0.500193
vt 0.178202 0.054590
vt 0.178202 0.000000
vt 0.278909 0.054590
vt 0.263152 0.054590
vt 0.263152 0.000000
vt 0.278909 -0.000000
vt 0.218053 0.733875
vt 0.503199 0.029706
vt 0.503199 0.053553
vt 0.497340 0.053553
vt 0.497340 0.029706
vt 0.284945 0.393802
vt 0.280677 0.398070
vt 0.715217 0.399485
vt 0.715217 0.415243
vt 0.256898 0.514239
vt 0.256898 0.600161
vt 0.248946 0.600161
vt 0.248946 0.514239
vt 0.256898 0.387767
vt 0.248946 0.387767
vt 0.503199 0.339036
vt 0.503199 0.393626
vt 0.499056 0.397769
vt 0.497340 0.339036
vt 0.503189 0.459934
vt 0.503189 0.745417
vt 0.497340 0.745417
vt 0.497340 0.459934
vt 0.589122 0.393626
vt 0.589122 0.399485
vt 0.218053 0.442357
vt 0.226004 0.442357
vt 0.589122 0.005859
vt 0.503199 0.005859
vt 0.499056 0.001716
vt 0.589122 0.000000
vt 0.503189 0.793111
vt 0.588963 0.793111
vt 0.588963 0.798970
vt 0.499053 0.797254
vt 0.218053 0.387767
vt 0.226004 0.387767
vt 0.233719 0.446496
vt 0.226005 0.446496
vt 0.226005 0.387767
vt 0.233719 0.387767
vt 0.233719 0.731979
vt 0.226005 0.731979
vt 0.264612 0.604308
vt 0.264612 0.477836
vt 0.272326 0.477836
vt 0.272326 0.604308
vt 0.264612 0.387767
vt 0.272326 0.387767
vt 0.256898 0.477836
vt 0.256898 0.387767
vt 0.226005 0.755826
vt 0.233719 0.755826
vt 0.233719 0.783819
vt 0.226005 0.783819
vt 0.715217 0.405344
vt 0.588963 0.405344
vt 0.588963 0.399485
vt 0.715217 0.399485
vt 0.503188 0.405344
vt 0.499053 0.401201
vt 0.503189 0.769264
vt 0.497340 0.769264
vt 0.715594 0.005859
vt 0.715594 0.000000
vt 0.240994 0.446621
vt 0.233719 0.446621
vt 0.233719 0.387767
vt 0.240994 0.387767
vt 0.934887 0.489679
vt 0.927612 0.489679
vt 0.927612 0.399485
vt 0.934887 0.399485
vt 0.233719 0.732103
vt 0.240994 0.732103
vt 0.240994 0.755950
vt 0.233719 0.755950
vt 0.233719 0.784068
vt 0.240994 0.784068
vt 0.927989 0.126472
vt 0.935264 0.126472
vt 0.935264 0.216666
vt 0.927989 0.216666
vt 0.497340 0.006035
vt 0.497340 -0.000000
vt 0.091799 0.387767
vt 0.218053 0.387767
vt 0.370868 0.393802
vt 0.370868 0.399838
vt 0.362638 0.787605
vt 0.362638 0.918136
vt 0.354510 0.918136
vt 0.354510 0.787605
vt 0.240994 0.685112
vt 0.240994 0.600162
vt 0.249122 0.600162
vt 0.249122 0.685112
vt 0.240994 0.770061
vt 0.249122 0.770061
vt 0.904850 0.678394
vt 0.942651 0.678394
vt 0.942651 0.898278
vt 0.904850 0.898278
vt 0.256898 0.642109
vt 0.256898 0.604309
vt 0.275093 0.604309
vt 0.275093 0.642109
vt 0.715217 0.445606
vt 0.151834 0.787604
vt 0.278306 0.787604
vt 0.278306 0.817968
vt 0.151834 0.872554
vt 0.362638 0.914077
vt 0.362638 0.787605
vt 0.370766 0.787605
vt 0.370766 0.914077
vt 0.278306 0.884722
vt 0.151834 0.957504
vt 0.927989 0.112876
vt 0.927989 0.252526
vt 0.497340 0.393802
vt 0.497340 0.399838
vt 0.927989 -0.000000
vt 0.935264 0.000000
vt 0.934887 0.616151
vt 0.927612 0.616151
vt 0.715217 0.793111
vt 0.715217 0.798970
vt 0.715594 0.393626
vt 0.715594 0.399485
vt 0.264612 0.604309
vt 0.256898 0.604308
vt 0.715217 0.678394
vt 0.715217 0.652011
vt 0.491305 0.733015
vt 0.491305 0.787605
vt 0.715217 0.512361
vt 0.248946 0.600162
vt 0.240994 0.600161
vt 0.927989 0.278909
vt 0.218053 0.757722
vt 0.218053 0.781569
vt 0.218053 0.787604
vt 0.927989 0.000000
vt 0.927989 0.015758
vt 0.000000 0.999999
vt 0.000000 0.787605
vt 0.151834 0.787605
vt 0.018195 0.999999
vt 0.715217 0.890789
vt 0.715217 0.678394
vt 0.733412 0.678394
vt 0.867051 0.890789
vt 0.316710 1.000000
vt 0.316710 0.787605
vt 0.354510 0.787605
vt 0.354510 1.000000
vt 0.278910 1.000000
vt 0.278910 0.787605
vt 0.256898 0.679909
vt 0.275093 0.679909
vt 0.867050 0.678394
vt 0.867050 0.898277
s 0
f 38/1/1 35/2/1 36/3/1 37/4/1
f 14/5/2 4/6/2 27/7/2 15/8/2
f 15/8/2 27/7/2 86/9/2 78/10/2
f 51/11/3 54/12/3 33/13/3 34/14/3
f 109/15/3 3/16/3 1/17/3 105/18/3
f 2/19/4 7/20/4 20/21/4 28/22/4
f 8/23/4 1/24/4 32/25/4 30/26/4
f 9/27/4 8/23/4 30/26/4 22/28/4
f 25/29/2 6/30/2 80/31/2 83/32/2
f 1/17/3 3/16/3 31/33/3 32/34/3
f 109/15/3 113/35/3 13/36/3 3/16/3
f 4/6/2 6/30/2 25/29/2 27/7/2
f 11/37/5 17/38/5 53/39/5 48/40/5
f 26/41/3 12/42/3 82/43/3 85/44/3
f 94/45/5 95/46/5 10/47/5 19/48/5
f 53/39/5 51/49/5 34/50/5 37/51/5
f 119/52/2 52/53/2 41/54/2 117/55/2
f 19/48/5 10/47/5 16/56/5 29/57/5
f 21/58/5 22/59/5 30/60/5 23/61/5
f 3/16/3 13/36/3 18/62/3 31/33/3
f 31/63/5 18/64/5 17/38/5 23/61/5
f 57/65/5 56/66/5 12/67/5 26/68/5
f 94/45/5 19/48/5 20/69/5 96/70/5
f 31/63/5 23/61/5 30/60/5 32/71/5
f 57/65/5 26/68/5 24/72/5 58/73/5
f 19/48/5 29/57/5 28/74/5 20/69/5
f 93/75/4 9/27/4 22/28/4 96/76/4
f 53/39/5 37/51/5 36/77/5 48/40/5
f 59/78/1 40/79/1 39/80/1 60/81/1
f 42/82/2 47/83/2 77/84/2 90/85/2
f 5/86/3 24/87/3 84/88/3 79/89/3
f 12/42/3 49/90/3 81/91/3 82/43/3
f 44/92/1 43/93/1 46/94/1 45/95/1
f 33/96/1 38/1/1 37/4/1 34/97/1
f 97/98/1 44/92/1 45/95/1 98/99/1
f 99/100/5 48/40/5 36/77/5 98/101/5
f 50/102/5 55/103/5 45/104/5 46/105/5
f 52/53/2 47/83/2 42/82/2 41/54/2
f 14/5/2 15/8/2 47/83/2 52/53/2
f 16/56/5 10/47/5 55/103/5 50/102/5
f 95/46/5 11/37/5 48/40/5 99/100/5
f 11/37/5 21/58/5 23/61/5 17/38/5
f 114/106/2 14/5/2 52/53/2 119/52/2
f 17/38/5 18/64/5 51/49/5 53/39/5
f 29/107/3 16/108/3 68/109/3 69/110/3
f 49/90/3 39/111/3 87/112/3 81/91/3
f 18/62/3 13/36/3 54/12/3 51/11/3
f 116/113/1 43/93/1 44/92/1 123/114/1
f 62/115/4 58/116/4 24/117/4 5/118/4
f 125/119/4 62/115/4 5/118/4 111/120/4
f 50/121/3 46/122/3 66/123/3 65/124/3
f 61/125/2 56/126/2 67/127/2 75/128/2
f 46/122/3 43/129/3 72/130/3 66/123/3
f 12/67/5 56/66/5 61/131/5 49/132/5
f 2/133/3 28/134/3 64/135/3 63/136/3
f 16/108/3 50/121/3 65/124/3 68/109/3
f 58/137/2 62/138/2 76/139/2 70/140/2
f 49/132/5 61/131/5 60/141/5 39/142/5
f 75/143/6 65/144/6 66/145/6 73/146/6
f 67/147/5 68/148/5 65/144/5 75/143/5
f 127/149/4 63/150/4 76/151/4 129/152/4
f 63/150/7 64/153/7 70/154/7 76/151/7
f 72/150/8 71/155/8 73/156/8 66/153/8
f 69/157/9 74/158/9 70/159/9 64/160/9
f 69/157/5 68/148/5 67/147/5 74/158/5
f 126/161/2 59/162/2 71/163/2 130/164/2
f 59/162/2 60/165/2 73/166/2 71/163/2
f 28/134/3 29/107/3 69/110/3 64/135/3
f 57/167/2 58/137/2 70/140/2 74/168/2
f 56/126/2 57/167/2 74/168/2 67/127/2
f 60/165/2 61/125/2 75/128/2 73/166/2
f 108/169/3 2/133/3 63/136/3 127/170/3
f 77/171/10 81/172/10 87/173/10 90/174/10
f 80/175/11 79/176/11 84/177/11 83/178/11
f 82/179/5 78/180/5 86/181/5 85/182/5
f 84/183/12 85/182/12 86/181/12 83/184/12
f 88/185/13 89/186/13 90/187/13 87/188/13
f 78/180/5 82/179/5 81/172/5 77/171/5
f 111/189/3 5/86/3 79/89/3 132/190/3
f 117/55/2 41/54/2 89/191/2 133/192/2
f 47/83/2 15/8/2 78/10/2 77/84/2
f 24/87/3 26/41/3 85/44/3 84/88/3
f 27/7/2 25/29/2 83/32/2 86/9/2
f 39/111/3 40/193/3 88/194/3 87/112/3
f 41/54/2 42/82/2 90/85/2 89/191/2
f 112/195/14 9/196/14 92/197/14 136/198/14
f 93/199/15 7/200/15 91/201/15 100/202/15
f 9/203/15 93/199/15 100/202/15 92/204/15
f 10/47/5 95/46/5 99/100/5 55/103/5
f 55/103/5 99/100/5 98/101/5 45/104/5
f 35/2/1 97/98/1 98/99/1 36/3/1
f 7/20/4 93/75/4 96/76/4 20/21/4
f 21/58/5 94/45/5 96/70/5 22/59/5
f 21/58/5 11/37/5 95/46/5 94/45/5
f 146/205/16 140/206/16 101/207/16 144/208/16
f 144/209/5 101/210/5 103/211/5 143/212/5
f 44/92/1 97/98/1 138/213/1 123/114/1
f 91/214/4 135/215/4 137/216/4 100/217/4
f 7/218/3 107/219/3 135/220/3 91/221/3
f 100/217/4 137/216/4 136/222/4 92/223/4
f 9/27/4 112/224/4 115/225/4 8/23/4
f 40/193/3 118/226/3 134/227/3 88/194/3
f 88/185/1 134/228/1 133/229/1 89/186/1
f 79/176/4 80/175/4 131/230/4 132/231/4
f 62/138/2 125/232/2 129/233/2 76/139/2
f 43/129/3 116/234/3 128/235/3 72/130/3
f 72/150/1 128/236/1 130/237/1 71/155/1
f 38/1/1 33/96/1 121/238/1 124/239/1
f 33/13/3 54/12/3 120/240/3 121/241/3
f 97/98/1 35/2/1 122/242/1 138/213/1
f 13/36/3 113/35/3 120/240/3 54/12/3
f 59/78/1 126/243/1 118/244/1 40/79/1
f 8/23/4 115/225/4 105/245/4 1/24/4
f 35/2/1 38/1/1 124/239/1 122/242/1
f 4/6/2 14/5/2 114/106/2 106/246/2
f 6/30/2 110/247/2 131/248/2 80/31/2
f 4/6/2 106/246/2 110/247/2 6/30/2
f 2/19/4 108/249/4 107/250/4 7/20/4
f 104/251/1 142/252/1 141/253/1 102/254/1
f 139/255/4 103/256/4 101/257/4 140/258/4
f 143/259/3 145/260/3 142/261/3 104/262/3
f 103/263/3 139/264/3 145/260/3 143/259/3
f 102/265/5 144/209/5 143/212/5 104/266/5
f 141/267/16 146/205/16 144/208/16 102/268/16
